<?xml version="1.0" encoding="UTF-8"?>
<svg width="60px" height="60px" viewBox="0 0 60 60" version="1.1" xmlns="http://www.w3.org/2000/svg" xmlns:xlink="http://www.w3.org/1999/xlink">
    <!-- Generator: Sketch 52.3 (67297) - http://www.bohemiancoding.com/sketch -->
    <title>afmetingen</title>
    <desc>Created with Sketch.</desc>
    <g id="afmetingen" stroke="none" stroke-width="1" fill="none" fill-rule="evenodd">
        <g id="resize" fill="#00275B">
            <path d="M23.7747986,33.5534986 L3.78062132,53.5472231 L3.78062132,43.6115469 C3.78062132,42.5685598 2.93619469,41.7213681 1.89031066,41.7213681 C0.845368014,41.7213681 0,42.5676184 0,43.6115469 L0,58.1098211 C0,58.3555067 0.0498936578,58.600251 0.145915414,58.8318168 C0.337017538,59.2949482 0.705100938,59.6620646 1.1682647,59.8550361 C1.3989052,59.9501098 1.64460793,60 1.89031066,60 L16.3905373,60 C17.4345385,60 18.2808479,59.1546909 18.2808479,58.1098211 C18.2808479,57.0649514 17.4354799,56.2196423 16.3905373,56.2196423 L6.45322687,56.2196423 L26.4464628,36.2259178 C27.1845124,35.4879197 27.1845124,34.2914967 26.4464628,33.5534986 C25.7084132,32.8155005 24.5128482,32.8155005 23.7747986,33.5534986 Z" id="Path"></path>
            <path d="M59.8540846,1.16814252 C59.6629825,0.705968484 59.2948991,0.337923581 58.8317353,0.144958862 C58.6010948,0.0498884395 58.3553921,0 58.1096893,0 L43.6094627,0 C42.5654615,0 41.7191521,0.845279598 41.7191521,1.89011295 C41.7191521,2.93494631 42.5645201,3.78022591 43.6094627,3.78022591 L53.5467731,3.78022591 L33.5535372,23.7732534 C32.8154876,24.5112258 32.8154876,25.707607 33.5535372,26.4455794 C33.922562,26.8145656 34.4064363,27 34.8903107,27 C35.374185,27 35.857118,26.8145656 36.2261427,26.4455794 L56.2193787,6.45255195 L56.2193787,16.3878817 C56.2193787,17.4308325 57.0638053,18.2779947 58.1096893,18.2779947 C59.1536906,18.2779947 60,17.4317738 60,16.3878817 L60,1.89011295 C60,1.64443592 59.9501063,1.39875889 59.8540846,1.16814252 Z" id="Path"></path>
        </g>
    </g>
</svg>