<?xml version="1.0" encoding="UTF-8"?>
<svg width="64px" height="64px" viewBox="0 0 64 64" version="1.1" xmlns="http://www.w3.org/2000/svg" xmlns:xlink="http://www.w3.org/1999/xlink">
    <!-- Generator: Sketch 52.4 (67378) - http://www.bohemiancoding.com/sketch -->
    <title>AMBASSADOR ICON</title>
    <desc>Created with Sketch.</desc>
    <g id="DESKTOP" stroke="none" stroke-width="1" fill="none" fill-rule="evenodd">
        <g id="010-DEALER-DETAIL" transform="translate(-596.000000, -292.000000)">
            <g id="AMBASSADOR-ICON" transform="translate(596.000000, 292.000000)">
                <circle id="Combined-Shape" fill="#EBBE3E" cx="32" cy="32" r="32"></circle>
                <polygon id="Rectangle-path" fill="#FFFFFF" fill-rule="nonzero" points="15 40 26 40 26 44 15 44"></polygon>
                <path d="M48.1584022,25.2983193 L31.5661157,15 L15,25.2983193 L15,29.5560224 L26.0440771,29.5560224 L26.0440771,25.2983193 L37.1143251,25.2983193 L37.1143251,30.2212885 C36.0936639,29.9817927 35.0206612,29.7955182 34.1831956,29.7955182 C32.6652893,29.7955182 30.7286501,30.1946779 28.5564738,30.9131653 C27.6666667,31.232493 26.8292011,31.4453782 26.0440771,31.605042 L15,31.605042 L15,33.6806723 L26.0702479,33.6806723 C26.8292011,33.5210084 27.6928375,33.2815126 28.5826446,32.9887955 C30.7548209,32.2436975 32.6914601,31.8711485 34.2093664,31.8711485 C35.7272727,31.8977591 37.9517906,32.4565826 39.3911846,32.9355742 C40.8044077,33.4145658 43.630854,34 46.6666667,34 C49.7024793,34 53,32.8823529 53,32.8823529 L53,30.8067227 C53,30.8067227 50.6969697,31.605042 48.1584022,31.8445378 L48.1584022,25.2983193 Z" id="Shape" fill="#FFFFFF" fill-rule="nonzero"></path>
                <path d="M52.9738472,35.0526316 C52.9738472,35.0526316 50.5677908,35.8421053 47.9786648,36.0789474 C47.952512,36.0789474 47.9263593,36.0789474 47.9002065,36.0789474 C47.8217481,36.1052632 47.7432897,36.1052632 47.6648314,36.1052632 C47.6125258,36.1052632 47.5602202,36.1052632 47.5079147,36.1052632 C47.4294563,36.1052632 47.3509979,36.1052632 47.2725396,36.1052632 C47.220234,36.1052632 47.1940812,36.1052632 47.1417756,36.1052632 C47.0633173,36.1052632 47.0110117,36.1052632 46.9325533,36.1052632 C46.8802478,36.1052632 46.8017894,36.1052632 46.7494838,36.1052632 C46.723331,36.1052632 46.6710255,36.1052632 46.6448727,36.1052632 C43.6111493,36.1052632 40.8128011,35.5263158 39.3743978,35.0526316 C37.9621473,34.5789474 35.7130076,34 34.1961459,34 C32.6792842,34 30.743978,34.3947368 28.5732966,35.1052632 C27.6579491,35.4210526 26.8210599,35.6315789 26.0364763,35.7894737 L15,35.7894737 L15,37.8421053 L26.0364763,37.8421053 C26.8210599,37.6842105 27.6841019,37.4473684 28.5732966,37.1578947 C30.743978,36.4210526 32.6792842,36.0526316 34.1961459,36.0526316 C35.0330351,36.0526316 36.1052994,36.2368421 37.1252581,36.4736842 L37.1252581,44 L48.1617343,44 L48.1617343,38.0789474 C50.6985547,37.8157895 53,37.0526316 53,37.0526316 L52.9738472,37.0526316 L52.9738472,35.0526316 Z" id="Shape" fill="#FFFFFF" fill-rule="nonzero"></path>
            </g>
        </g>
        <g id="Page"></g>
    </g>
</svg>