<?xml version="1.0" encoding="UTF-8"?>
<svg width="148px" height="48px" viewBox="0 0 148 48" version="1.1" xmlns="http://www.w3.org/2000/svg" xmlns:xlink="http://www.w3.org/1999/xlink">
    <!-- Generator: Sketch 52.3 (67297) - http://www.bohemiancoding.com/sketch -->
    <title>Group 42</title>
    <desc>Created with Sketch.</desc>
    <defs>
        <polygon id="path-1" points="0.000141762452 0.0962807018 147.917211 0.0962807018 147.917211 47.9998877 0.000141762452 47.9998877"></polygon>
        <polygon id="path-3" points="0 48 148 48 148 0 0 0"></polygon>
    </defs>
    <g id="TABLET" stroke="none" stroke-width="1" fill="none" fill-rule="evenodd">
        <g id="01-HOME-TABLET" transform="translate(-525.000000, -4680.000000)">
            <g id="VISUALISEER-JE-TERRASOVERKAPPING" transform="translate(0.000000, 4230.000000)">
                <g id="Group-42" transform="translate(525.000000, 450.000000)">
                    <g id="Group-3">
                        <mask id="mask-2" fill="white">
                            <use xlink:href="#path-1"></use>
                        </mask>
                        <g id="Clip-2"></g>
                        <path d="M147.917352,41.5257825 C147.917352,45.1008 144.990808,47.9998877 141.380119,47.9998877 L6.5387931,47.9998877 C2.92810345,47.9998877 0.000141762452,45.1008 0.000141762452,41.5257825 L0.000141762452,6.56971228 C0.000141762452,2.99497544 2.92810345,0.0961684211 6.5387931,0.0961684211 L141.380119,0.0961684211 C144.990808,0.0961684211 147.917352,2.99497544 147.917352,6.56971228 L147.917352,41.5257825 Z" id="Fill-1" fill="#1D1D1B" mask="url(#mask-2)"></path>
                    </g>
                    <path d="M39,31.9579116 C38.2073485,33.7251786 37.8279548,34.5138381 36.8077244,36.0755687 C35.3834197,38.2562181 33.3768231,40.9717818 30.8903883,40.9945871 C28.6803197,41.015083 28.1129511,39.547749 25.1142486,39.5644922 C22.1158332,39.580658 21.4893458,41.0202791 19.2789902,40.9997832 C16.7925553,40.9766892 14.8907082,38.5246856 13.4666904,36.344325 C9.48477868,30.2472248 9.06893795,23.0918429 11.5243784,19.2879753 C13.269819,16.5845359 16.0222886,15.0023094 18.6111769,15.0023094 C21.2468438,15.0023094 22.903893,16.4563643 25.0829673,16.4563643 C27.1966091,16.4563643 28.4851701,15 31.5323729,15 C33.8354246,15 36.2759419,16.2612201 38.0150687,18.4433128 C32.3175629,21.5835172 33.2428013,29.7697567 39,31.9579116" id="Fill-4" fill="#FEFEFE"></path>
                    <path d="M28.2910161,12.3968559 C29.3992669,10.9973256 30.24217,9.02028753 29.936862,7 C28.1254253,7.12268151 26.0058058,8.25621348 24.7681873,9.73347984 C23.6452748,11.0750616 22.7181389,13.0645374 23.0792188,14.9977606 C25.0568212,15.0579707 27.1028448,13.8967364 28.2910161,12.3968559" id="Fill-6" fill="#FEFEFE"></path>
                    <path d="M51.9221675,21.7950738 C52.1110486,22.5537741 52.3151302,23.3418228 52.5769177,24.1935081 L54.0848698,28.7009606 L49.7935257,28.7009606 L51.2803659,24.1638691 C51.5066854,23.4284152 51.7217452,22.6339737 51.9221675,21.7950738 Z M50.5946517,19 L45,36 L47.5621393,36 L49.2322308,30.7800492 L54.6492611,30.7800492 L56.3669247,36 L59,36 L53.38114,19 L50.5946517,19 Z" id="Fill-8" fill="#FEFEFE"></path>
                    <path d="M65.9940991,26.0723637 C68.3222856,26.0723637 69.3640834,28.139637 69.3640834,30.1879627 C69.3640834,32.829887 68.0346184,34.4709797 65.8949646,34.4709797 C64.4342054,34.4709797 63.170535,33.5179412 62.8182533,32.1480545 C62.7577695,31.935954 62.7256098,31.65485 62.7256098,31.3378304 L62.7256098,29.3248549 C62.7256098,29.1424484 62.768096,28.9212982 62.8085169,28.7069353 C62.8214988,28.6384975 62.8356609,28.5700597 62.8459874,28.5038844 C63.2354445,27.0714987 64.5283242,26.0723637 65.9940991,26.0723637 M66.6446696,24 C64.8658537,24 63.4413847,24.6580773 62.4928206,25.9091877 L62.3886703,24.2635703 L60,24.2635703 L60.0141621,24.473974 C60.0846774,25.4991266 60.1138867,26.6275015 60.1138867,28.2473841 L60.1138867,41 L62.7256098,41 L62.7256098,35.0487415 C63.5357986,35.9780247 64.8295633,36.5190225 66.2953383,36.5190225 C67.8218922,36.5190225 69.2280685,35.9460682 70.2527537,34.9064928 C71.3969315,33.7478582 72,32.0818791 72,30.0918104 C72,28.3330727 71.4760031,26.8124532 70.4828875,25.6953903 C69.5101298,24.6020827 68.14762,24 66.6446696,24" id="Fill-10" fill="#FEFEFE"></path>
                    <path d="M77.9942465,26.0723637 C80.32131,26.0723637 81.3634285,28.139637 81.3634285,30.1879627 C81.3634285,32.829887 80.0330457,34.4709797 77.8945194,34.4709797 C76.4343144,34.4709797 75.1694328,33.5179412 74.8177325,32.1480545 C74.7572472,31.935954 74.7256768,31.65485 74.7256768,31.3378304 L74.7256768,29.3248549 C74.7256768,29.1416 74.7675739,28.9193186 74.808881,28.7049557 C74.8218632,28.6373663 74.8348455,28.5700597 74.8466475,28.5038844 C75.2346389,27.0714987 76.5281404,26.0723637 77.9942465,26.0723637 M78.6442428,24 C76.8659733,24 75.4414694,24.6580773 74.4919968,25.9091877 L74.3878439,24.2635703 L72,24.2635703 L72.0132773,24.473974 C72.0840894,25.5002578 72.1138895,26.6275015 72.1138895,28.2473841 L72.1138895,41 L74.7256768,41 L74.7256768,35.0487415 C75.5358855,35.9780247 76.8287969,36.5190225 78.294608,36.5190225 C79.8209043,36.5190225 81.2274102,35.9460682 82.253891,34.9064928 C83.3960316,33.7478582 84,32.0818791 84,30.0918104 C84,28.3330727 83.4751051,26.8124532 82.481965,25.6953903 C81.5097735,24.6020827 80.1472302,24 78.6442428,24" id="Fill-12" fill="#FEFEFE"></path>
                    <path d="M95.8528456,26.2433117 C93.5583146,25.3424387 92.8233758,24.6339059 92.8233758,23.3249789 C92.8233758,22.2227542 93.686915,21.1109547 95.6175874,21.1109547 C97.2105102,21.1109547 98.2293142,21.6727682 98.5037358,21.8456773 L98.7120518,21.9760631 L99.4058828,19.895804 L99.2686721,19.8144185 C98.8567619,19.5696987 97.6829709,19 95.6884149,19 C92.5531206,19 90.3633031,20.8766545 90.3633031,23.5626584 C90.3633031,25.7290904 91.7345777,27.2433117 94.678499,28.3283582 C96.7649918,29.1191214 97.5415938,29.9290341 97.5415938,31.317657 C97.5415938,32.889327 96.343638,33.8642636 94.4165764,33.8642636 C93.161681,33.8642636 91.8698442,33.4933821 90.8729828,32.8456773 L90.659945,32.7071248 L90,34.8355393 L90.121101,34.9169248 C91.049357,35.5451985 92.7961559,36 94.2760326,36 C98.5015138,36 100,33.3874965 100,31.1506618 C100,28.8442692 98.7987112,27.4221346 95.8528456,26.2433117" id="Fill-14" fill="#FEFEFE"></path>
                    <path d="M104.093292,21 L101.729924,21.765501 L101.729924,23.8303317 L100,23.8303317 L100,25.8168152 L101.729924,25.8168152 L101.729924,31.9020705 C101.729924,33.3732589 102.002683,34.4041298 102.564262,35.0559009 C103.102703,35.6647072 103.930507,36 104.895508,36 C105.806339,36 106.453393,35.8143815 106.758001,35.7031788 L106.89302,35.6540362 L106.777601,33.6639022 L106.54649,33.736914 C106.241882,33.8335143 105.929108,33.8705818 105.425783,33.8705818 C104.492086,33.8705818 104.093292,33.2612139 104.093292,31.8304628 L104.093292,25.8168152 L107,25.8168152 L107,23.8303317 L104.093292,23.8303317 L104.093292,21 Z" id="Fill-16" fill="#FEFEFE"></path>
                    <path d="M113.012153,25.052137 C115.316373,25.052137 116.365324,27.331865 116.365324,29.4509578 C116.365324,32.0566549 114.933832,33.947863 112.96354,33.947863 L112.938654,33.947863 C110.996142,33.947863 109.586062,32.0880772 109.586062,29.5258426 C109.586062,27.2992681 110.64572,25.052137 113.012153,25.052137 M113.086231,23 C109.502435,23 107,25.7146471 107,29.5992591 C107,33.3681666 109.421702,36 112.890041,36 L112.913769,36 C115.845913,36 119,33.9273064 119,29.3757793 C119,27.5250971 118.436026,25.9354839 117.367977,24.7778531 C116.293562,23.61523 114.812298,23 113.086231,23" id="Fill-18" fill="#FEFEFE"></path>
                    <path d="M127,23.1138031 L126.855399,23.0764225 C126.64299,23.0227052 126.469795,23 126.256025,23 C124.994917,23 123.863432,23.754811 123.233831,24.9731414 L123.163028,23.2580645 L121,23.2580645 L121.013888,23.4640731 C121.078155,24.4343071 121.104843,25.5233283 121.104843,26.9933546 L121.082513,35 L123.492806,35 L123.492806,28.753565 C123.492806,28.4135401 123.515681,28.092067 123.559252,27.8035442 C123.831026,26.3033366 124.826896,25.3336564 126.095357,25.3336564 C126.342078,25.3336564 126.536241,25.3541465 126.742114,25.3746366 L127,25.4017721 L127,23.1138031 Z" id="Fill-20" fill="#FEFEFE"></path>
                    <path d="M132.169807,24.9775459 C132.887097,24.9775459 133.469445,25.2224632 133.899287,25.7055435 C134.577185,26.4664317 134.695624,27.5873543 134.710795,28.1253501 L129.337645,28.1253501 C129.556691,26.6241303 130.407591,24.9775459 132.169807,24.9775459 M132.326839,23 C129.190727,23 127,25.764864 127,29.7237734 C127,33.5361435 129.179282,36 132.552273,36 C134.3262,36 135.560098,35.5703669 136.282178,35.2106262 L136.424039,35.1398527 L135.971308,33.2031264 L135.774886,33.2906388 C135.132918,33.578725 134.279357,33.8729782 132.823219,33.8729782 C131.799585,33.8729782 129.43905,33.5003163 129.294528,30.1040707 L136.898861,30.1293259 L136.929469,29.9634047 C136.977111,29.6991054 137,29.3431824 137,28.8783094 C137,26.1665989 135.776482,23 132.326839,23" id="Fill-22" fill="#FEFEFE"></path>
                    <path d="M46.11012,15.1357805 C46.3875118,15.1824029 46.7911667,15.1824029 47.22024,15.1824029 C49.5659141,15.1937742 50.8393195,13.9679471 50.8393195,11.8423652 C50.8520287,9.96211933 49.7170429,8.80565723 47.3965109,8.80565723 C46.8295706,8.80565723 46.400221,8.85284816 46.11012,8.91084183 L46.11012,15.1357805 Z M45,8.16346256 C45.681323,8.07021783 46.4759236,8 47.3459504,8 C48.9227187,8 50.0449953,8.32720941 50.7893117,8.96968836 C51.5584938,9.61159873 52,10.5340962 52,11.8073985 C52,13.0920721 51.5584938,14.142781 50.7768787,14.8671334 C49.969569,15.602857 48.6577597,16 47.0055652,16 C46.2109646,16 45.5677692,15.9766888 45,15.906471 L45,8.16346256 Z" id="Fill-24" fill="#FEFEFE"></path>
                    <path d="M55.9811024,15.2172031 C57.0465956,15.2172031 57.8461325,14.28056 57.8461325,12.9758984 C57.8461325,12.0037523 57.3258916,10.7825083 56.0066698,10.7825083 C54.6996758,10.7825083 54.128856,11.9209121 54.128856,13.01169 C54.128856,14.2687256 54.8900417,15.2172031 55.9683187,15.2172031 L55.9811024,15.2172031 Z M55.9430292,16 C54.2936545,16 53,14.8618848 53,13.0474816 C53,11.1265695 54.357295,10 56.044465,10 C57.8080593,10 59,11.1972868 59,12.9406841 C59,15.0751912 57.4145438,16 55.9560908,16 L55.9430292,16 Z" id="Fill-26" fill="#FEFEFE"></path>
                    <path d="M61.1523792,10 L61.9844816,13.037417 C62.1507899,13.7066989 62.3173787,14.3388654 62.4323642,14.958962 L62.4707862,14.958962 C62.6115733,14.3512372 62.8165841,13.7066989 63.0213144,13.0497888 L64.0329064,10 L64.9802748,10 L65.9405441,12.9996982 C66.1707956,13.7066989 66.3500047,14.3512372 66.4907918,14.958962 L66.5292138,14.958962 C66.6315789,14.3512372 66.7984482,13.7190706 67.002898,13.0123718 L67.8860428,10 L69,10 L67.002898,16 L65.9786856,16 L65.0315976,13.1366928 C64.814247,12.4547375 64.634477,11.8596862 64.4805086,11.1529873 L64.4552678,11.1529873 C64.3015799,11.8720579 64.1097504,12.5042245 63.8918388,13.1490646 L62.8934281,16 L61.8694961,16 L60,10 L61.1523792,10 Z" id="Fill-28" fill="#FEFEFE"></path>
                    <path d="M70.0484466,11.7213671 C70.0484466,11.102926 70.0363349,10.6184411 70,10.1330711 L70.937862,10.1330711 L70.9976303,11.0911237 L71.0218536,11.0911237 C71.3104265,10.5455618 71.9834123,10 72.9447077,10 C73.7501316,10 75,10.4847799 75,12.497074 L75,16 L73.9428647,16 L73.9428647,12.6180477 C73.9428647,11.6726826 73.5937335,10.873076 72.5963665,10.873076 C71.9112691,10.873076 71.3701948,11.3699533 71.1782517,11.9636095 C71.1300685,12.0969757 71.1061085,12.2908286 71.1061085,12.4607819 L71.1061085,16 L70.0484466,16 L70.0484466,11.7213671 Z" id="Fill-30" fill="#FEFEFE"></path>
                    <mask id="mask-4" fill="white">
                        <use xlink:href="#path-3"></use>
                    </mask>
                    <g id="Clip-33"></g>
                    <polygon id="Fill-32" fill="#FEFEFE" mask="url(#mask-4)" points="77 15 78 15 78 7 77 7"></polygon>
                    <path d="M82.9805465,15.2172031 C84.0463177,15.2172031 84.8458546,14.28056 84.8458546,12.9758984 C84.8458546,12.0037523 84.3256137,10.7825083 83.0066698,10.7825083 C81.6996758,10.7825083 81.128578,11.9209121 81.128578,13.01169 C81.128578,14.2687256 81.8897638,15.2172031 82.9683187,15.2172031 L82.9805465,15.2172031 Z M82.9430292,16 C81.2942103,16 80,14.8618848 80,13.0474816 C80,11.1265695 81.3567392,10 83.044465,10 C84.8075035,10 86,11.1972868 86,12.9406841 C86,15.0751912 84.4142659,16 82.955535,16 L82.9430292,16 Z" id="Fill-34" fill="#FEFEFE" mask="url(#mask-4)"></path>
                    <path d="M90.7956184,12.9406841 C89.5517907,12.9170154 88.1399625,13.1184875 88.1399625,14.2332227 C88.1399625,14.9207678 88.632045,15.229326 89.2021681,15.229326 C90.0311028,15.229326 90.5623475,14.7547987 90.7431182,14.2687256 C90.7828481,14.1619281 90.7956184,14.0430076 90.7956184,13.9364988 L90.7956184,12.9406841 Z M91.9091889,14.494155 C91.9091889,14.9917737 91.9352971,15.4778467 92,15.8692452 L90.9763891,15.8692452 L90.872524,15.1464858 L90.8344968,15.1464858 C90.4973608,15.5967672 89.8103184,16 88.9172484,16 C87.6478801,16 87,15.1819887 87,14.3515659 C87,12.9643527 88.3468415,12.2052244 90.7689426,12.2170587 L90.7689426,12.0987155 C90.7689426,11.6244768 90.6270503,10.7588397 89.344628,10.770674 C88.7481128,10.770674 88.1399625,10.9245201 87.6995289,11.1972868 L87.4401498,10.4979073 C87.9583404,10.2017607 88.7222884,10 89.5129122,10 C91.4429309,10 91.9091889,11.1972868 91.9091889,12.3478135 L91.9091889,14.494155 Z" id="Fill-35" fill="#FEFEFE" mask="url(#mask-4)"></path>
                    <path d="M97.7923116,11.6934738 C97.7923116,11.560316 97.779369,11.4050103 97.7393907,11.2718525 C97.5694113,10.6617036 96.9389628,10.1512205 96.0726714,10.1512205 C94.877638,10.1512205 94.1683835,11.0387589 94.1683835,12.215301 C94.1683835,13.313515 94.8123498,14.2118573 96.046211,14.2118573 C96.8210413,14.2118573 97.5300082,13.7683581 97.7393907,13.0471994 C97.779369,12.9143118 97.7923116,12.7806138 97.7923116,12.6255782 L97.7923116,11.6934738 Z M98.9473668,7 L98.9473668,13.4906985 C98.9473668,13.9679598 98.9611722,14.5116648 99,14.8779162 L97.9631539,14.8779162 L97.9108083,13.9460819 L97.8843479,13.9460819 C97.5300082,14.5451568 96.7681205,15 95.7312744,15 C94.1948439,15 93.0000981,13.901786 93.0000981,12.2704008 C92.9868679,10.4726358 94.3133406,9.3854958 95.8489083,9.3854958 C96.8342716,9.3854958 97.4906052,9.77443533 97.7664264,10.1955164 L97.7923116,10.1955164 L97.7923116,7 L98.9473668,7 Z" id="Fill-36" fill="#FEFEFE" mask="url(#mask-4)"></path>
                    <path d="M105.981382,15.2172031 C107.046777,15.2172031 107.845684,14.28056 107.845684,12.9758984 C107.845684,12.0037523 107.326325,10.7825083 106.006947,10.7825083 C104.700074,10.7825083 104.129585,11.9209121 104.129585,13.01169 C104.129585,14.2687256 104.890422,15.2172031 105.968322,15.2172031 L105.981382,15.2172031 Z M105.942757,16 C104.29409,16 103,14.8618848 103,13.0474816 C103,11.1265695 104.358003,10 106.044461,10 C107.80817,10 109,11.1972868 109,12.9406841 C109,15.0751912 107.414135,16 105.956373,16 L105.942757,16 Z" id="Fill-37" fill="#FEFEFE" mask="url(#mask-4)"></path>
                    <path d="M111.048444,11.7213671 C111.048444,11.102926 111.03607,10.6184411 111,10.1330711 L111.937549,10.1330711 L111.998104,11.0911237 L112.0218,11.0911237 C112.310358,10.5455618 112.983045,10 113.944553,10 C114.749934,10 116,10.4847799 116,12.497074 L116,16 L114.94213,16 L114.94213,12.6180477 C114.94213,11.6726826 114.594071,10.873076 113.595967,10.873076 C112.911432,10.873076 112.370123,11.3699533 112.177663,11.9636095 C112.129746,12.0969757 112.105787,12.2908286 112.105787,12.4607819 L112.105787,16 L111.048444,16 L111.048444,11.7213671 Z" id="Fill-38" fill="#FEFEFE" mask="url(#mask-4)"></path>
                    <path d="M122.244275,9 L122.244275,10.3286056 L124,10.3286056 L124,11.0960956 L122.244275,11.0960956 L122.244275,14.0865737 C122.244275,14.773745 122.481527,15.1636255 123.16458,15.1636255 C123.498321,15.1636255 123.694046,15.140757 123.87542,15.094741 L123.930687,15.8622311 C123.694046,15.9311155 123.317863,16 122.843664,16 C122.272366,16 121.811908,15.8393625 121.519084,15.5760956 C121.184427,15.2668127 121.045496,14.773745 121.045496,14.1205976 L121.045496,11.0960956 L120,11.0960956 L120,10.3286056 L121.045496,10.3286056 L121.045496,9.30900398 L122.244275,9 Z" id="Fill-39" fill="#FEFEFE" mask="url(#mask-4)"></path>
                    <path d="M125,7 L126.067688,7 L126.067688,10.4027497 L126.092412,10.4027497 C126.261764,10.1210615 126.528686,9.86213872 126.857287,9.70415195 C127.172595,9.52422258 127.547987,9.42246374 127.949434,9.42246374 C128.737704,9.42246374 130,9.87311002 130,11.7549628 L130,15 L128.932312,15 L128.932312,11.8676929 C128.932312,10.9773717 128.580316,10.2450372 127.572978,10.2450372 C126.881214,10.2450372 126.347371,10.6959578 126.140799,11.2365687 C126.079917,11.37179 126.067688,11.5182569 126.067688,11.7099805 L126.067688,15 L125,15 L125,7 Z" id="Fill-40" fill="#FEFEFE" mask="url(#mask-4)"></path>
                    <path d="M136.806465,12.4427767 C136.819702,11.790446 136.482914,10.7470053 135.105593,10.7470053 C133.840328,10.7470053 133.306516,11.71944 133.208312,12.4427767 L136.806465,12.4427767 Z M133.194151,13.1897821 C133.222781,14.6009525 134.27686,15.1819887 135.513186,15.1819887 C136.398256,15.1819887 136.946537,15.0512339 137.396921,14.8970991 L137.621652,15.6322702 C137.185121,15.7982393 136.426578,16 135.344792,16 C133.264341,16 132,14.8258046 132,13.1069418 C132,11.3638332 133.222781,10 135.203489,10 C137.424628,10 138,11.6481455 138,12.703709 C138,12.9173041 137.986762,13.0832732 137.95844,13.2016164 L133.194151,13.1897821 Z" id="Fill-41" fill="#FEFEFE" mask="url(#mask-4)"></path>
                </g>
            </g>
        </g>
    </g>
</svg>