<?xml version="1.0" encoding="UTF-8"?>
<svg width="86px" height="86px" viewBox="0 0 86 86" version="1.1" xmlns="http://www.w3.org/2000/svg" xmlns:xlink="http://www.w3.org/1999/xlink">
    <!-- Generator: Sketch 52.3 (67297) - http://www.bohemiancoding.com/sketch -->
    <title>bodybuilding</title>
    <desc>Created with Sketch.</desc>
    <g id="Symbols" stroke="none" stroke-width="1" fill="none" fill-rule="evenodd">
        <g id="bodybuilding" fill="#00275B">
            <g>
                <path d="M0.853503723,31.9495156 L6.3161358,34.3835498 C7.13435983,34.7486882 7.96663328,35.0991677 8.80024505,35.4543115 C11.0803001,36.3531652 13.290776,37.4192628 15.41294,38.6426099 C17.9110988,40.4109993 20.037946,42.6484718 21.6750631,45.2290944 L22.204266,45.9447123 C19.2223981,46.9595041 16.3535964,48.2781337 13.643355,49.8806116 C13.2071473,50.1524665 12.9489016,50.635542 12.9669654,51.1479353 C12.9856983,51.6603285 13.2767265,52.1240809 13.7309979,52.3646192 C14.1859384,52.6051576 14.7352124,52.5865007 15.1714201,52.3146458 C15.2965288,52.2373539 27.7197514,44.5927673 40.078747,46.9295201 C49.2043196,48.6565983 59.4511868,62.9423068 59.5548865,63.0848975 L59.564922,63.094892 C59.6880236,63.2594709 59.8452455,63.3947321 60.0265528,63.4920134 C60.0680327,63.514668 60.1068364,63.5333248 60.1483164,63.5519815 C60.3276163,63.6392682 60.5236423,63.6885752 60.7236822,63.6952382 C60.73907,63.6952382 60.7551267,63.6879089 60.7698454,63.6879089 C60.9036515,63.6845772 61.0367885,63.6632553 61.1645732,63.6232768 L61.1766158,63.6232768 C61.1953487,63.6232768 61.2067221,63.6019548 61.225455,63.5946254 C61.3418663,63.5559792 61.4529253,63.5006756 61.5546179,63.4313792 C61.5760268,63.4173865 61.5847242,63.3940658 61.6047952,63.3787406 C61.6850788,63.311443 61.7573341,63.2341511 61.8188849,63.1495296 C61.8777595,63.0875625 61.9299438,63.0195989 61.9754378,62.9476373 C62.0169178,62.8663475 62.0497002,62.7810596 62.0731163,62.6931064 C62.1058988,62.608485 62.1306529,62.5211983 62.1467096,62.4325789 C62.154069,62.3472911 62.154069,62.2620033 62.1467096,62.1773818 C62.1460406,62.0754362 62.133329,61.9741569 62.1092439,61.8755429 C62.1079059,61.8515557 62.1052298,61.8282348 62.1005465,61.8049139 L61.7613482,60.8014495 C60.0004606,55.8447617 58.5433128,50.7867946 57.398602,45.6542009 C56.692775,41.3791493 56.4519242,37.0414644 56.6793944,32.7157732 C56.7115079,30.6395481 56.7456285,28.4933603 56.6793944,26.3518365 C56.6372457,24.9166027 56.1508606,23.529343 55.2864736,22.3799565 L51.0374624,16.7049855 C52.907402,15.6808655 54.2187013,13.8764951 54.6107529,11.7869437 C54.721143,11.0173546 54.1946162,10.3004039 53.4252313,10.1724722 C52.6551776,10.043874 51.9232585,10.5509368 51.7760718,11.3145292 C51.5532848,12.526549 50.7986187,13.5759889 49.7188038,14.1776678 C48.1178144,14.8393146 45.627684,14.0230837 42.5314118,11.8169278 C42.2336934,11.6070398 41.8670648,11.5190867 41.5064577,11.5717253 C41.028101,11.4950995 40.5430541,11.6636762 40.2158982,12.0201526 C39.8894114,12.3759628 39.7643027,12.8723645 39.8847283,13.3401147 L41.73928,20.4989604 C41.7700555,20.5909114 41.8101973,20.680197 41.8583675,20.7648186 C41.184654,21.5284111 40.2299478,21.9894982 39.2103459,22.0434695 C38.440961,21.9348607 37.7438316,21.5330752 37.2654749,20.9227342 L35.9039983,15.2331045 C35.7200149,14.4635152 34.944609,13.9884353 34.171879,14.1716709 C33.3991491,14.3555727 32.9221305,15.1278273 33.1067829,15.8974165 L34.5438599,21.9035441 C34.5538954,21.9448555 34.5873468,21.9748394 34.6013964,22.0161506 C33.7771511,22.4132722 32.8277972,22.4645781 31.9654172,22.1594075 C31.0782832,21.6430164 30.4299928,20.8007993 30.1583666,19.814659 L29.6244805,16.7462967 C29.5495491,16.2312383 29.1989771,15.7974698 28.7099161,15.613568 C28.220855,15.4296661 27.670243,15.5242824 27.27217,15.8614357 C26.8734282,16.1985891 26.6901138,16.7243085 26.7924754,17.2347027 L27.359144,20.4789712 C27.359813,20.9473879 27.1771678,21.3984804 26.8500121,21.7356337 C26.3863741,22.3966142 25.6825541,22.8510385 24.8877464,23.0042899 C24.239456,23.0575948 23.5878206,22.9476535 22.9930527,22.6851271 C22.9161142,21.8748928 22.7970267,21.0693227 22.6371285,20.2710821 C21.6074911,14.5114896 20.9765955,8.15888014 26.518173,5.70019252 C32.4022941,3.09225107 51.3592659,1.99350422 54.5217719,3.58465496 C57.4762095,5.06653069 68.3225278,21.1113003 74.2280578,34.9219291 C78.8196123,45.6755229 82.174799,63.1182129 83.0947156,68.206164 C83.191725,68.7378801 82.9796424,69.2782584 82.547449,69.6040846 L76.932278,73.8304953 C76.8024862,73.9284431 76.6566375,74.0030699 76.5007535,74.0503781 C74.830185,74.5720996 67.9244548,76.6276691 49.2618562,81.3151673 C28.1800442,86.6156714 13.7784991,70.7647983 13.6346575,70.6028847 C13.1094688,70.009868 12.2002567,69.9538978 11.6048198,70.476952 C11.009383,71.0006725 10.9531843,71.9055228 11.4783732,72.4985397 C14.330449,75.4316408 17.5979928,77.9329723 21.1759664,79.9252424 C16.9523785,81.5157268 10.434686,83.1595162 10.3544023,83.1795054 C9.65058253,83.3547453 9.18828259,84.0257204 9.27726357,84.7433375 C9.36557556,85.4609544 9.97773828,86 10.7036361,86 C10.8220545,85.9993337 10.9404728,85.9853412 11.055546,85.9566898 C15.6397413,84.8412851 20.1356245,83.392725 24.507068,81.6216702 C32.4390906,85.3956559 41.4509281,86.2718549 49.966345,84.0970157 C68.701868,79.3968578 75.672494,77.3153021 77.3617955,76.7955795 C77.8321238,76.6489911 78.2730146,76.4217791 78.6657354,76.1252705 L84.2849205,71.8961945 C85.5861842,70.922714 86.223101,69.300913 85.9293967,67.7064308 C84.9967686,62.5425202 81.5880595,44.8379698 76.8727343,33.807857 C71.7191943,21.7156445 60.364413,3.3068033 55.8216977,1.0260206 C51.6322303,-1.07552447 31.7018194,0.269757539 25.3567365,3.08358906 C17.2862247,6.66234565 18.9882376,16.1919259 19.8051235,20.772148 C19.9596695,21.5084217 20.0687215,22.2540238 20.1296033,23.0042899 C20.1296033,23.2908037 20.2634093,25.8674285 24.8877464,25.8674285 C26.5563077,25.7354989 28.0857108,24.8892838 29.0798898,23.5479997 C29.5542322,24.0557288 30.1215699,24.4681752 30.7517964,24.7626848 C31.452271,25.0825141 32.2149656,25.2457602 32.9856885,25.2417624 C34.2421272,25.2051153 35.4724738,24.8772903 36.5797188,24.2856061 C36.6298961,24.2509579 36.6780663,24.2136445 36.7235603,24.1736658 C37.4206899,24.5961069 38.2094766,24.8459736 39.0236864,24.9026102 C39.1300622,24.9026102 39.2377761,24.9126047 39.3441519,24.9126047 C41.117082,24.8139907 42.7802912,24.0237459 43.973172,22.7137783 C44.569278,23.0469338 45.2182373,23.2761448 45.8919508,23.392083 C46.249213,23.4527174 46.6098202,23.4827013 46.9717657,23.4827013 C48.5680718,23.4240659 50.1168768,22.9289968 51.4482469,22.050799 L52.9709599,24.086379 C53.4814299,24.7680152 53.769113,25.5889104 53.7958742,26.4391233 C53.862108,28.5133495 53.8286566,30.6255556 53.7958742,32.6671326 C53.5670657,37.1960486 53.8279876,41.7369583 54.5739562,46.2112368 C55.2262607,49.3235756 56.0371254,52.4006 57.0032051,55.4309826 C52.8746196,50.8940709 46.6901038,45.2570794 40.6146402,44.1076929 C35.411592,43.238157 30.0767448,43.5693136 25.0215524,45.0758428 C24.9794035,44.9272555 24.9125005,44.7866639 24.8248575,44.6587321 L23.99526,43.5366644 C22.1453914,40.6515375 19.7415656,38.1595344 16.9209341,36.2032452 C14.6763377,34.9039386 12.337408,33.7732089 9.92287789,32.8217167 C9.10666082,32.475235 8.29111308,32.1300858 7.48894577,31.7736095 L2.02631387,29.3395752 C1.30175407,29.0164144 0.450747602,29.3395752 0.126267976,30.0611901 C-0.198880808,30.782805 0.125598818,31.6303526 0.850827774,31.9541797 L0.853503723,31.9495156 Z M46.4224917,20.5702558 C45.6597974,20.444323 44.9626678,20.0625268 44.4475144,19.4881666 L43.485449,15.7654869 C44.9312233,16.5937115 46.5429173,17.0947774 48.2054574,17.2313711 C48.2041193,17.5212165 48.2944384,17.8043986 48.4623651,18.0402728 L49.7348605,19.7440301 C48.7580763,20.3883529 47.5892805,20.680197 46.4224917,20.5702558 Z" id="Shape" fill-rule="nonzero"></path>
                <path d="M39.337742,77 C42.218349,76.9724441 45.0855298,76.58184 47.8741667,75.837832 C48.3843651,75.7200306 48.7931951,75.3273598 48.9408841,74.8127542 C49.0892444,74.2974597 48.9536391,73.7408314 48.5871019,73.357116 C48.2205646,72.9740898 47.6808284,72.8239103 47.1760005,72.9665119 C31.2484121,77.0530452 25.9181816,68.1318371 25.6932915,67.7412329 C25.2952025,67.0323585 24.412425,66.789867 23.7223146,67.1983827 C23.0315327,67.6068982 22.7952302,68.5127968 23.1933194,69.2209824 C23.4054545,69.595742 27.6884358,77 39.337742,77 Z" id="Path"></path>
                <path d="M39,38.4998254 L39,29.5001745 C39,28.6715531 38.3285248,28 37.5000001,28 C36.6714752,28 36,28.6715531 36,29.5001745 L36,38.4998254 C36,39.3284467 36.6714752,40 37.5000001,40 C38.3285248,40 39,39.3284467 39,38.4998254 Z" id="Path"></path>
                <path d="M47.3366684,41.9999849 C47.9095604,41.9999849 48.4185911,41.559256 48.5996349,40.9063518 L49.9320428,36.1067243 C50.082086,35.5640022 49.9797839,34.9661891 49.6635772,34.5381163 C49.3473706,34.1100434 48.8650004,33.9179688 48.3981307,34.032618 C47.9312609,34.1480116 47.5511928,34.5530058 47.4005298,35.0957277 L46.0681217,39.8953554 C45.932959,40.3837308 46.0011605,40.9204969 46.2528857,41.3381471 C46.5039909,41.7557973 46.9076194,42.0022184 47.3366684,41.9999849 Z" id="Path"></path>
                <path d="M26.6688638,41.9999916 C27.096665,41.9999916 27.4984262,41.752826 27.7489069,41.3359199 C27.9987677,40.9182691 28.0669679,40.3829916 27.9318075,39.8953603 L26.5994236,35.0957286 C26.4487631,34.5530063 26.068702,34.1480118 25.6018405,34.0326181 C25.1355991,33.9179688 24.6526176,34.1100435 24.3364168,34.5381168 C24.0202159,34.9661899 23.9179155,35.5640035 24.067956,36.1067261 L25.4003399,40.9063575 C25.5820004,41.5614957 26.0935021,42.002225 26.6688638,41.9999916 Z" id="Path"></path>
            </g>
        </g>
    </g>
</svg>