<?xml version="1.0" encoding="UTF-8"?>
<svg width="98px" height="98px" viewBox="0 0 98 98" version="1.1" xmlns="http://www.w3.org/2000/svg" xmlns:xlink="http://www.w3.org/1999/xlink">
    <!-- Generator: Sketch 52.3 (67297) - http://www.bohemiancoding.com/sketch -->
    <title>coin</title>
    <desc>Created with Sketch.</desc>
    <g id="Symbols" stroke="none" stroke-width="1" fill="none" fill-rule="evenodd">
        <g id="coin" fill="#00275B">
            <g>
                <path d="M49,98 C35.9111024,98 23.6057739,92.903061 14.3517304,83.6482696 C5.09693904,74.3934784 0,62.0888976 0,49 C0,35.9111024 5.09693904,23.6065216 14.3517304,14.3517304 C23.6065216,5.09693904 35.9111024,0 49,0 C62.0888976,0 74.3934784,5.09693904 83.6482696,14.3517304 C92.903061,23.6065216 98,35.9111024 98,49 C98,62.0888976 92.903061,74.3942261 83.6482696,83.6490174 C74.3934784,92.903061 62.0888976,98 49,98 Z M49,3.828125 C24.0917665,3.828125 3.828125,24.0925141 3.828125,49 C3.828125,73.9082335 24.0917665,94.171875 49,94.171875 C73.9082335,94.171875 94.171875,73.9082335 94.171875,49 C94.171875,24.0925141 73.9082335,3.828125 49,3.828125 Z" id="Shape" fill-rule="nonzero"></path>
                <path d="M49.0543942,85 C43.0964969,85 37.1565519,83.5283257 31.9264682,80.7099235 C30.9959441,80.2078932 30.6473717,79.0467145 31.1492863,78.1152278 C31.6504527,77.183741 32.8121117,76.8358364 33.7433837,77.3378667 C46.1461325,84.022874 61.774299,81.7244585 71.7467642,71.7489459 C77.8235949,65.6714622 81.1701904,57.5895988 81.1701904,48.9944822 C81.1701904,40.3986174 77.8235949,32.317502 71.7467642,26.2392702 C59.2033897,13.6930038 38.7917012,13.6922557 26.2475786,26.2400185 C16.2751134,36.2147828 13.9772276,51.8458044 20.6599463,64.2514126 C21.1618609,65.1828994 20.8140362,66.344078 19.8827642,66.8461083 C18.9522401,67.3473903 17.789833,66.9994856 17.2886666,66.068747 C13.691488,59.3919695 12.2897178,51.5562579 13.3399234,44.0056036 C14.4260334,36.199071 17.9528992,29.1182751 23.5397835,23.5308508 C37.5769335,9.48971639 60.4174095,9.48971639 74.4553072,23.5308508 C81.2554634,30.3325748 85,39.3751042 85,48.9944822 C85,58.6131119 81.2547154,67.6563894 74.4553072,74.4581134 C68.8684229,80.0462858 61.7900071,83.5739647 53.9852741,84.6603252 C52.3501248,84.8877726 50.7015115,85 49.0543942,85 Z" id="Path"></path>
                <path d="M24.9887363,75 C24.4822589,75 23.9765582,74.8081375 23.5881552,74.423636 C22.808242,73.6499719 22.8035813,72.3908261 23.5765033,71.610948 L23.5990306,71.5884217 C24.3727293,70.8085436 25.6319316,70.8031061 26.4118448,71.5767701 C27.1917579,72.3496573 27.1964187,73.6088031 26.4234969,74.3886812 L26.4009694,74.4112077 C26.0117897,74.803477 25.5006515,75 24.9887363,75 Z" id="Path"></path>
                <path d="M57.0854394,62.4787916 C55.1987161,63.5963752 53.168888,64.1630374 51.0516906,64.1630374 C45.6099438,64.1630374 40.9183672,60.3478119 38.8230121,54.8873173 L48.8290479,54.8873173 C49.8940485,54.8873173 50.7571962,54.0283293 50.7571962,52.9684612 C50.7571962,51.908593 49.8940485,51.0496052 48.8290479,51.0496052 L37.8340829,51.0496052 C37.7173395,50.2191001 37.6540721,49.3683574 37.6540721,48.5003748 C37.6540721,47.8280256 37.693991,47.1669197 37.7647901,46.5163077 L51.7536572,46.5163077 C52.818658,46.5163077 53.6825587,45.6573197 53.6825587,44.5974516 C53.6825587,43.5375834 52.818658,42.6785956 51.7536572,42.6785956 L38.6173932,42.6785956 C40.5982645,36.91753 45.4239076,32.8377121 51.0516906,32.8377121 C53.168888,32.8377121 55.1987161,33.4043743 57.0854394,34.5219581 C58.0005567,35.0638851 59.183807,34.7648133 59.7283584,33.8541062 C60.2729097,32.9433991 59.9731428,31.7658512 59.0580256,31.2239242 C56.6011427,29.7690416 53.8331953,29 51.0516906,29 C43.3308121,29 36.7788736,34.7603159 34.5825921,42.6785956 L30.9281484,42.6785956 C29.8639007,42.6785956 29,43.5375834 29,44.5974516 C29,45.6573197 29.8639007,46.5163077 30.9281484,46.5163077 L33.8858979,46.5163077 C33.8271495,47.1684189 33.7970222,47.8302743 33.7970222,48.5003748 C33.7970222,49.36386 33.8474855,50.2146029 33.9446461,51.0496052 L30.9281484,51.0496052 C29.8639007,51.0496052 29,51.908593 29,52.9684612 C29,54.0283293 29.8639007,54.8873173 30.9281484,54.8873173 L34.7482924,54.8873173 C37.0944571,62.5117717 43.5160952,68 51.0516906,68 C53.8324421,68 56.6011427,67.2309584 59.0572723,65.7760758 C59.9723896,65.2341488 60.2729097,64.0566009 59.7283584,63.1458938 C59.183807,62.2351867 58.0005567,61.9361149 57.0854394,62.4787916 Z" id="Path"></path>
            </g>
        </g>
    </g>
</svg>