<?xml version="1.0" encoding="UTF-8"?>
<svg width="69px" height="98px" viewBox="0 0 69 98" version="1.1" xmlns="http://www.w3.org/2000/svg" xmlns:xlink="http://www.w3.org/1999/xlink">
    <!-- Generator: Sketch 52.3 (67297) - http://www.bohemiancoding.com/sketch -->
    <title>waranty</title>
    <desc>Created with Sketch.</desc>
    <g id="Symbols" stroke="none" stroke-width="1" fill="none" fill-rule="evenodd">
        <g id="garantie" fill="#00275B">
            <g id="waranty">
                <path d="M60.7199999,0 L8.27999989,0 C3.70907901,0.00523377422 0.0052643533,3.68756104 0,8.23196402 L0,89.768036 C0.0052643533,94.312439 3.70907901,97.9947662 8.27999989,98 L60.7199999,98 C65.2909208,97.9947662 68.9947356,94.312439 69,89.768036 L69,8.23196402 C68.9947356,3.68756104 65.2909208,0.00523377422 60.7199999,0 Z M65.7143214,89.768036 C65.7120652,92.5090332 63.4769918,94.7303925 60.7199999,94.7333832 L8.27999989,94.7333832 C5.52300817,94.7303925 3.2879346,92.5090332 3.28567842,89.768036 L3.28567842,8.23196402 C3.2879346,5.4909668 5.52300817,3.2696075 8.27999989,3.26661677 L60.7199999,3.26661677 C63.4769918,3.2696075 65.7120652,5.4909668 65.7143214,8.23196402 L65.7143214,89.768036 Z" id="Shape" fill-rule="nonzero"></path>
                <path d="M20.7159352,44.726565 C21.2633493,45.0985705 21.9807538,45.1045705 22.53341,44.7408153 L26.9666406,41.8217726 L29.8819389,46.2618375 C30.3791797,47.0170986 31.3938803,47.2256016 32.1487277,46.7268443 C32.5096764,46.4883409 32.762041,46.1163355 32.8496574,45.6910792 L34.9988755,35.2696767 L37.1473448,45.6910792 C37.329317,46.5775921 38.1942463,47.1483506 39.0786458,46.9660979 C39.5047451,46.8783466 39.8776757,46.6248428 40.116561,46.2618375 L43.033357,41.8217726 L47.46509,44.7408153 C48.2191884,45.2388226 49.233889,45.0288195 49.7303809,44.2735584 C49.9692662,43.9098031 50.0538869,43.4665466 49.9662708,43.0405404 L46.2946272,25.23753 C49.6734678,18.8384364 47.2329444,10.9070703 40.8437006,7.52302084 C34.4544567,4.13897134 26.5352992,6.58325714 23.1564586,12.9823507 C20.998254,17.0699106 21.1502719,21.9937326 23.5555991,25.9402902 L20.0337268,43.0405404 C19.9004303,43.6885498 20.1692698,44.3538096 20.7159352,44.726565 Z M43.4632008,38.1827193 C42.7083534,37.685462 41.6944016,37.8947151 41.1979096,38.6514762 L39.5616582,41.1542629 L37.6543208,31.9006275 C39.9091276,31.3801199 41.9857069,30.2686036 43.670634,28.6793303 L45.9711212,39.8289935 L43.4632008,38.1827193 Z M34.7225475,9.30354698 C40.1435197,9.30354698 44.5378099,13.7046114 44.5378099,19.1339408 C44.5378099,24.5632701 40.1435197,28.9650844 34.7225475,28.9650844 C29.3015751,28.9650844 24.9072851,24.5632701 24.9072851,19.1339408 C24.9125271,13.7068612 29.3038217,9.30879691 34.7225475,9.30354698 Z M26.2484871,29.1038366 C27.9858342,30.5903582 30.0826325,31.5931229 32.329202,32.012379 L30.445079,41.1542629 L28.8005901,38.6514762 C28.304847,37.8999653 27.2961374,37.6907122 26.5427877,38.1827193 L24.0438535,39.8207433 L26.2484871,29.1038366 Z" id="Shape" fill-rule="nonzero"></path>
                <polygon id="Path" points="13 54 56 54 56 57 13 57"></polygon>
                <polygon id="Path" points="13 65 56 65 56 68 13 68"></polygon>
                <polygon id="Path" points="13 79 56 79 56 82 13 82"></polygon>
            </g>
        </g>
    </g>
</svg>