<?xml version="1.0" encoding="UTF-8"?>
<svg width="167px" height="166px" viewBox="0 0 167 166" version="1.1" xmlns="http://www.w3.org/2000/svg" xmlns:xlink="http://www.w3.org/1999/xlink">
    <!-- Generator: Sketch 52.3 (67297) - http://www.bohemiancoding.com/sketch -->
    <title>customer-support</title>
    <desc>Created with Sketch.</desc>
    <defs>
        <filter x="-31.4%" y="-19.7%" width="162.9%" height="139.5%" filterUnits="objectBoundingBox" id="filter-1">
            <feOffset dx="0" dy="0" in="SourceAlpha" result="shadowOffsetOuter1"></feOffset>
            <feGaussianBlur stdDeviation="20" in="shadowOffsetOuter1" result="shadowBlurOuter1"></feGaussianBlur>
            <feColorMatrix values="0 0 0 0 0   0 0 0 0 0   0 0 0 0 0  0 0 0 0.15 0" type="matrix" in="shadowBlurOuter1" result="shadowMatrixOuter1"></feColorMatrix>
            <feMerge>
                <feMergeNode in="shadowMatrixOuter1"></feMergeNode>
                <feMergeNode in="SourceGraphic"></feMergeNode>
            </feMerge>
        </filter>
    </defs>
    <g id="DESKTOP" stroke="none" stroke-width="1" fill="none" fill-rule="evenodd">
        <g id="01-HOME" transform="translate(-1064.000000, -2142.000000)" fill="#00275B">
            <g id="-" transform="translate(0.000000, 1841.000000)">
                <g id="GEBRUIK-EN-ONDERHOUD" filter="url(#filter-1)" transform="translate(1025.000000, 189.000000)">
                    <g id="customer-support" transform="translate(77.000000, 150.000000)">
                        <path d="M0.191346467,8.23023343 L6.18285444,18.7168263 C6.38495384,19.0711864 6.72322384,19.3275582 7.11879638,19.426779 L12.7085702,20.8244983 L31.8802866,40 L33.9986335,37.8818511 L14.5268487,18.4068382 C14.3352239,18.2145594 14.0949229,18.0783619 13.8318239,18.01242 L8.4607858,16.6646192 L3.35962426,7.73104787 L7.73310475,3.35670404 L16.6686095,8.46380282 L18.0167604,13.8359015 C18.0820731,14.0996687 18.2188598,14.3406334 18.4104846,14.532296 L37.8822692,34.0079253 L40,31.8891602 L20.8282835,12.7136585 L19.4308401,7.12586258 C19.3316389,6.72959555 19.0753177,6.39064252 18.7210275,6.18788682 L8.23588864,0.195812136 C7.65115579,-0.136978029 6.91546474,-0.0383734893 6.43855936,0.43677702 L0.447667663,6.42946794 C-0.0341669411,6.90338613 -0.138913537,7.64045491 0.191346467,8.23023343 Z" id="Path"></path>
                        <polygon id="Path" points="63 29.1135161 29.1745348 62 27 59.885869 60.8260977 27"></polygon>
                        <path d="M24.0615312,63.7275282 C23.7770888,63.2758312 23.2663856,63 22.7143088,63 L13.2856912,63 C12.734261,63 12.2229112,63.2758312 11.9391152,63.7275282 L7.22448323,71.2274254 C6.92517226,71.7025711 6.92517226,72.2968118 7.22448323,72.7725746 L11.9391152,80.2724717 C12.2229112,80.7235516 12.734261,81 13.2856912,81 L22.7143088,81 C23.2663856,81 23.7770888,80.7235516 24.0615312,80.2724717 L28.7755168,72.7725746 C29.0748277,72.2968118 29.0748277,71.7025711 28.7755168,71.2274254 L24.0615312,63.7275282 Z M21.8254265,77.9997942 L14.17522,77.9997942 L10.4037729,72 L14.17522,65.9995886 L21.8254265,65.9995886 L25.5968735,72 L21.8254265,77.9997942 Z" id="Shape" fill-rule="nonzero"></path>
                        <path d="M72.7689045,35.9864835 C82.7816294,36.0197896 90.926518,28.0189478 90.9601951,18.1165801 C90.9651843,16.6091751 90.7780889,15.107938 90.4032744,13.6467914 C90.2012113,12.8431299 89.3786149,12.3540251 88.565997,12.553861 C88.2990743,12.6198562 88.0558501,12.7561641 87.8612709,12.947982 L78.4241763,22.2748961 L70.9366165,19.807168 L68.4395157,12.4039841 L77.8766104,3.06905191 C78.4684556,2.48311292 78.4678319,1.53389199 77.875363,0.948569729 C77.6801601,0.755518314 77.4344414,0.61859372 77.1656475,0.553215193 C67.4553937,-1.87873975 57.5910979,3.93439122 55.13204,13.5370049 C54.7584727,14.9938341 54.5720011,16.4913705 54.5769903,17.9944581 C54.5807321,19.1749708 54.7035914,20.3517828 54.9455682,21.5076245 L21.7442332,54.342408 C20.5755104,54.1037149 19.3855831,53.9822097 18.1925379,53.9778922 C8.14488846,53.9778922 0,62.0330104 0,71.9699177 C0,81.9062081 8.14488846,89.9613263 18.1925379,89.9613263 C28.2395636,89.9613263 36.3844523,81.9062081 36.3844523,71.9699177 C36.3807103,70.7894049 36.2572273,69.6125929 36.0158742,68.4567513 L43.9643125,60.5959182 L47.4405461,64.0338376 C48.0330149,64.6191597 48.992191,64.6191597 49.5846599,64.0338376 L50.3423965,63.2838358 C51.0072089,62.6306681 52.0817605,62.6306681 52.7465731,63.2838358 C53.4107619,63.9388538 53.4120091,65.0021789 52.7496913,65.6590472 C52.7490677,65.6596639 52.7478203,65.6608974 52.7465731,65.662131 L51.9888365,66.4115161 C51.3969912,66.9968382 51.3969912,67.9460593 51.9888365,68.5313814 L70.0734828,86.4167044 C74.8300727,91.1640431 82.5770717,91.1985827 87.3773173,86.4944183 C92.1769393,81.7902539 92.2118637,74.1280232 87.4552737,69.3813011 C87.429704,69.3553966 87.4035106,69.329492 87.3773173,69.3035872 L69.292671,51.4188811 C68.7008257,50.8335589 67.741026,50.8335589 67.1491808,51.4188811 L66.3914443,52.1682662 C65.7260081,52.8220505 64.6520802,52.8220505 63.9866441,52.1682662 C63.3230789,51.5132481 63.3212079,50.4499232 63.9835258,49.7936716 C63.9847731,49.7924379 63.9860204,49.7918212 63.9866441,49.7905877 L64.7450044,49.0405859 C65.3368496,48.4552637 65.3368496,47.5060427 64.7450044,46.9207205 L61.2687708,43.482801 L69.2172092,35.6219679 C70.3859322,35.860661 71.5758592,35.9827829 72.7689045,35.9864835 Z M78.7254,86.9631694 C77.6240314,86.9613191 76.5320176,86.7645669 75.5011217,86.3815479 L87.3411456,74.6714045 C89.1279071,79.3718682 86.7237305,84.6144795 81.9708825,86.3815479 C80.93375,86.7670342 79.8342523,86.9644031 78.7254,86.9631694 Z M61.5506613,47.9957642 C59.8717914,49.9762378 60.1349725,52.9281365 62.1375173,54.5878854 C63.8974619,56.0465651 66.4625405,56.0453314 68.2206141,54.583568 L85.2338271,71.4240692 C85.418428,71.6072524 85.5911794,71.8003038 85.758318,71.9964391 L72.7963452,84.815549 C72.5974003,84.6508695 72.4021974,84.4800219 72.216973,84.2968389 L55.1906633,67.4569544 C56.869533,65.476481 56.6063522,62.5245823 54.6038072,60.8648332 C52.8438627,59.4055369 50.2781603,59.4073873 48.5200869,60.8685339 L46.0947061,58.4698851 L59.1246569,45.6026663 L61.5506613,47.9957642 Z M67.6724244,32.9161636 L33.2811624,66.9215914 C32.9038533,67.294125 32.7523059,67.8350393 32.880778,68.3463481 C34.9606558,76.424287 30.0250779,84.6403843 21.8564905,86.6967214 C13.6885268,88.7536755 5.380865,83.8724958 3.30098736,75.7939401 C1.22173317,67.7160012 6.15731124,59.4999039 14.3258985,57.44295 C16.7968059,56.821238 19.3855831,56.821238 21.8564905,57.44295 C22.3734975,57.5681558 22.9191926,57.4182789 23.2971254,57.0475953 L57.6802801,23.041551 C58.0569655,22.669017 58.2085128,22.1281029 58.0787933,21.6174109 C56.0132596,13.633839 60.8827305,5.50594107 68.9552755,3.46255623 C70.4807272,3.07706999 72.0585654,2.92904331 73.6301672,3.02587739 L65.6330841,10.9379033 C65.2270869,11.3388088 65.0848944,11.9327658 65.2663769,12.4712128 L68.2979469,21.467534 C68.4494941,21.9146979 68.8049756,22.2662612 69.2577465,22.4149047 L78.3543274,25.4136784 C78.8981515,25.5931607 79.4987279,25.4531521 79.9047249,25.0522465 L87.9018082,17.1433048 C87.9198942,17.4294897 87.9292488,17.7125907 87.9292488,17.9944581 C87.9716571,26.2327593 81.2536832,32.9451522 72.9235701,32.9877099 C71.6357298,32.9938777 70.3522549,32.8372161 69.1049519,32.5214258 C68.5879448,32.3937528 68.0410025,32.5430131 67.664317,32.9155469 L67.6724244,32.9155469 L67.6724244,32.9161636 Z" id="Shape" fill-rule="nonzero"></path>
                        <polygon id="Path" points="78 75.8935343 75.8935341 78 61 63.1064659 63.105853 61"></polygon>
                    </g>
                </g>
            </g>
        </g>
        <g id="Page"></g>
    </g>
</svg>