<?xml version="1.0" encoding="UTF-8"?>
<svg width="96px" height="47px" viewBox="0 0 96 47" version="1.1" xmlns="http://www.w3.org/2000/svg" xmlns:xlink="http://www.w3.org/1999/xlink">
    <!-- Generator: Sketch 52.3 (67297) - http://www.bohemiancoding.com/sketch -->
    <title>infinity</title>
    <desc>Created with Sketch.</desc>
    <g id="Symbols" stroke="none" stroke-width="1" fill="none" fill-rule="evenodd">
        <g id="infinity" fill="#00275B" fill-rule="nonzero">
            <g id="Shape">
                <path d="M86.9314272,40.5936643 C87.2084712,40.8645548 87.5719529,41 87.9354346,41 C88.2981776,41 88.6609203,40.8652752 88.9372256,40.5958257 C93.4918285,36.1664783 96,30.219856 96,23.851048 C96,15.1133894 91.3042893,7.34690208 83.437718,3.07461341 C79.7024265,1.04509627 75.4795375,-0.0125293347 71.2337462,0.000438817017 C66.7182988,0.0220524647 62.2686033,1.27780276 58.3626527,3.63368524 C58.3582199,3.63656705 58.354526,3.63872846 58.3500934,3.64088986 C54.4470978,5.99821334 50.8314892,8.83319727 47.5852727,12.0810011 C44.3649135,8.86057459 40.7382232,6.01190181 36.8330112,3.65097612 C36.827101,3.6480943 36.8219294,3.64449208 36.8160191,3.64088986 C32.9078522,1.28068439 28.4522463,0.0213320574 23.9353214,0.000438817017 C19.693224,-0.0247769592 15.4792005,1.03717124 11.7283945,3.07461341 C11.0442807,3.44636736 10.7982655,4.28857732 11.179478,4.95571724 C11.5606905,5.62357758 12.4243289,5.86348851 13.1091816,5.49101416 C16.4329706,3.68627829 20.178605,2.74536626 23.9190681,2.76697977 C27.9092401,2.78571165 31.8469585,3.89809168 35.3103776,5.98596549 C35.3155491,5.98884731 35.3207205,5.99244971 35.325892,5.99533134 C39.418755,8.46720695 43.186553,11.5024772 46.4734027,14.9534488 C46.4948276,14.9801056 46.5177299,15.0060419 46.5421098,15.0312578 C48.3742939,16.9620729 50.0505946,19.0153649 51.5259461,21.1342185 C51.5274237,21.1363797 51.5296401,21.1392617 51.5311176,21.1414229 C51.5318563,21.1428639 51.5325951,21.1435843 51.533334,21.1443047 C51.5495871,21.1673592 51.5658405,21.1911343 51.5820936,21.2141888 C55.0410801,26.2033285 59.6555244,30.5224466 64.9260091,33.7054095 C68.7669466,36.024549 73.4153753,36.1290147 77.3604813,33.9863864 C81.2110234,31.8949102 83.50938,28.1060458 83.50938,23.851048 C83.50938,19.5960504 81.2110234,15.807186 77.3604813,13.71571 C73.4146364,11.5730815 68.7669466,11.6782676 64.9260091,13.9966867 C61.4167853,16.1162605 58.2341042,18.7034086 55.444456,21.7004947 C54.9140093,21.031914 54.4079423,20.3510856 53.9321653,19.6644936 C53.9151734,19.639998 53.8981813,19.6162231 53.8811892,19.5917276 C53.8804505,19.5902868 53.8789728,19.5881254 53.8774954,19.5866846 C53.8767566,19.5852436 53.875279,19.5830824 53.8745402,19.5816414 C52.5476843,17.6760422 51.0900636,15.8475314 49.5179314,14.1112389 C52.6215627,10.9902348 56.0820266,8.26836182 59.8261836,6.00325637 C59.8328326,6.00037456 59.8387429,5.99605193 59.8446531,5.99317012 C59.848347,5.99028831 59.8520411,5.9881269 59.8557349,5.98596549 L59.8564737,5.98596549 C59.8579513,5.98524509 59.8594288,5.98452468 59.8601675,5.98308368 C59.8631229,5.98164286 59.8660778,5.97948146 59.8697719,5.97804046 C63.3272807,3.89593027 67.2605663,2.78571165 71.2463057,2.76697977 C71.2773345,2.76625936 71.3076246,2.76625936 71.3386536,2.76625936 C75.0695124,2.76625936 78.7737751,3.70789198 82.0576696,5.49101416 C89.0118427,9.26835111 93.1630697,16.1313902 93.1630697,23.851048 C93.1630697,29.4792301 90.9511507,34.7306147 86.9336436,38.6369129 C86.3795555,39.1765324 86.3780781,40.0526038 86.9314272,40.5936643 Z M66.4198301,16.348967 C69.3727496,14.5658448 72.9462475,14.485154 75.9796942,16.132831 C78.9185768,17.7286353 80.6724497,20.614051 80.6724497,23.851048 C80.6724497,27.0880452 78.9185768,29.973461 75.9796942,31.5692653 C72.9462475,33.216942 69.3727496,33.1362513 66.4198301,31.3531293 C63.0310284,29.3070417 59.9333072,26.7595185 57.2759014,23.8517686 C59.951038,20.9209643 63.0221628,18.4008182 66.4198301,16.348967 Z"></path>
                <path d="M12.5621763,43.9503132 C16.265669,45.9453285 20.4449345,47 24.6478411,47 L24.7667843,46.9992855 C29.2866263,46.977849 33.741456,45.7295352 37.64959,43.3886793 C37.6547615,43.3851064 37.6621494,43.3808192 37.6687984,43.3772465 C41.5651121,41.041392 45.1733023,38.2332222 48.4143202,35.0177604 C51.6339136,38.2103567 55.2561406,41.0335322 59.1554095,43.3715301 C59.1650136,43.3772465 59.1753566,43.3836774 59.1834832,43.3886793 C63.092356,45.7295352 67.5471857,46.977849 72.0685053,46.9992855 L72.1852321,47 C76.3888774,47 80.568143,45.9453285 84.2708969,43.9503132 C84.9557439,43.5823214 85.2017568,42.7463014 84.8205475,42.0846307 C84.4393382,41.4222458 83.5757071,41.185016 82.8908601,41.5537224 C79.6092096,43.3215118 75.9064555,44.2561393 72.1852321,44.2561393 L72.0803258,44.2554248 C68.0872321,44.2368465 64.1465918,43.1321568 60.695761,41.0671157 C60.6854182,41.0606849 60.675814,41.054254 60.6669489,41.0492521 C56.5770754,38.5983558 52.8115252,35.5893981 49.5269196,32.1688613 C49.5047561,32.1424231 49.481854,32.1166994 49.4582131,32.0916902 C47.6216118,30.1717022 45.9408924,28.1302413 44.463337,26.0237566 C44.4625983,26.0223276 44.4611208,26.0201839 44.4596431,26.0187547 C44.4574268,26.0158965 44.4559493,26.0130383 44.4537329,26.0101802 C44.4500391,26.0051785 44.447084,26.0001766 44.4433901,25.9951747 C44.4426512,25.9944602 44.4419125,25.9937457 44.4411738,25.993031 C44.4382186,25.9880293 44.4345246,25.9830275 44.4315697,25.9787401 C44.4308308,25.9780256 44.430092,25.9765966 44.4293533,25.9758819 C44.4256595,25.9701655 44.4219654,25.9651638 44.4182716,25.9594474 C44.4145778,25.9551601 44.4116226,25.9501582 44.4079288,25.9451563 C40.9504491,21.0047781 36.3397372,16.7253558 31.0744685,13.571345 C31.0707745,13.5692013 31.0663419,13.5670578 31.0626481,13.5641996 C27.2246978,11.2705035 22.5814799,11.1683232 18.639362,13.2926717 C14.7895912,15.3662872 12.4905149,19.1240902 12.4905149,23.344205 C12.4905149,27.56432 14.7888523,31.3221231 18.639362,33.3964532 C22.5844348,35.5215161 27.230608,35.4179068 31.069297,33.1199235 C31.0744685,33.1170653 31.0789011,33.1142071 31.0833337,33.1113489 C34.5895728,31.0105806 37.7692721,28.4467857 40.5552029,25.4771281 C41.0583105,26.1052149 41.538516,26.7447345 41.9928643,27.3885416 C42.0179828,27.4249833 42.0431012,27.4607108 42.0682197,27.496438 C43.4098401,29.4157115 44.8873955,31.2570992 46.4816777,33.0041667 C43.37364,36.1045865 39.9072947,38.807718 36.1631695,41.0513958 C36.157998,41.054254 36.151349,41.0585412 36.1446999,41.0628285 C32.6835263,43.1328713 28.7451022,44.2368465 24.7527474,44.2554248 L24.6485798,44.2561393 C20.9266178,44.2561393 17.2246026,43.3215118 13.9429518,41.5537224 C6.98809849,37.8073522 2.83690644,31.0005768 2.83690644,23.344205 C2.83690644,17.5935303 5.16775019,12.2737275 9.39946897,8.36444072 C9.96611134,7.84067759 9.9867973,6.97250287 9.44601182,6.42444541 C8.9044878,5.87638777 8.00687302,5.85638046 7.44023046,6.3801434 C2.64260785,10.8117643 0,16.8368251 0,23.344205 C0,32.0102317 4.69567118,39.7130492 12.5621763,43.9503132 Z M29.5799212,30.7847837 C29.576966,30.7862127 29.5740109,30.7883564 29.5710558,30.7897856 C26.6203775,32.5532875 23.0506036,32.6318878 20.0201375,30.9991478 C17.0820183,29.416426 15.3274214,26.5546651 15.3274214,23.344205 C15.3274214,20.1337452 17.0812796,17.2719842 20.0201375,15.6892625 C21.4710969,14.9075481 23.046171,14.5181198 24.6168123,14.5181198 C26.3307766,14.5181198 28.0403084,14.9811463 29.5799212,15.9036266 C29.583615,15.9057703 29.5873088,15.907914 29.5910029,15.9100576 C32.9753435,17.9379421 36.0700834,20.4631513 38.7237729,23.3434905 C36.0486589,26.250268 32.9775599,28.7497537 29.5799212,30.7847837 Z"></path>
            </g>
        </g>
    </g>
</svg>