<?xml version="1.0" encoding="UTF-8"?>
<svg width="19px" height="13px" viewBox="0 0 19 13" version="1.1" xmlns="http://www.w3.org/2000/svg" xmlns:xlink="http://www.w3.org/1999/xlink">
    <!-- Generator: Sketch 52.3 (67297) - http://www.bohemiancoding.com/sketch -->
    <title>envelope-of-white-paper</title>
    <desc>Created with Sketch.</desc>
    <g id="TABLET" stroke="none" stroke-width="1" fill="none" fill-rule="evenodd">
        <g id="01-HOME-TABLET" transform="translate(-738.000000, -361.000000)" fill="#FFFFFF" fill-rule="nonzero">
            <g id="STICKY-CTA" transform="translate(726.000000, 241.000000)">
                <g id="ICONS" transform="translate(10.000000, 15.000000)">
                    <g id="envelope-of-white-paper" transform="translate(2.000000, 105.000000)">
                        <path d="M18.5016663,0.433921899 C18.1694809,0.144586735 17.7700415,0 17.3036079,0 L1.69646637,0 C1.22995854,0 0.830519109,0.144586735 0.498296611,0.433921899 C0.166036976,0.723192386 0,1.07099608 0,1.47730066 L0,11.5227964 C0,11.9291656 0.166036976,12.2766783 0.498296611,12.5659487 C0.830481972,12.8554779 1.22992141,13 1.69646637,13 L17.303645,13 C17.7700786,13 18.1694809,12.8554779 18.5017034,12.5659487 C18.8340373,12.2766783 19,11.9289716 19,11.5227964 L19,1.47730066 C18.9999629,1.07099608 18.8340373,0.723192386 18.5016663,0.433921899 Z M17.6427006,11.52257 C17.6427006,11.6026085 17.6091664,11.6718458 17.5419124,11.7303144 C17.4746954,11.7888476 17.3952606,11.8178232 17.3034965,11.8178232 L1.69635496,11.8178232 C1.60447944,11.8178232 1.5249332,11.7888476 1.45782768,11.7303144 C1.39064787,11.6718458 1.35711368,11.6026085 1.35711368,11.52257 L1.35711368,4.43174027 C1.58327453,4.65332567 1.82714947,4.85647796 2.08870134,5.04110012 C3.98310488,6.30907178 5.48865287,7.34924899 6.60549385,8.16179346 C6.96597717,8.4265188 7.25935496,8.6326786 7.48551582,8.78043453 C7.71167667,8.92825515 8.01738376,9.07746633 8.4025628,9.22819744 C8.78777899,9.37915491 9.15008199,9.45427792 9.48936041,9.45427792 L9.50001857,9.45427792 L9.51056531,9.45427792 C9.84976946,9.45427792 10.212221,9.37915491 10.5972886,9.22819744 C10.9826162,9.07746633 11.288509,8.92828749 11.5145956,8.78043453 C11.7407193,8.6326786 12.0341342,8.4265188 12.3946547,8.16179346 C13.5114957,7.34924899 15.016858,6.30907178 16.9113358,5.04110012 C17.1728877,4.8565103 17.416874,4.65332567 17.6427006,4.43174027 L17.6427006,11.52257 Z M17.6427006,1.71728683 L17.6427006,1.81883063 C17.6427006,2.18196291 17.4785205,2.58671522 17.1498631,3.03292586 C16.8211685,3.4791365 16.4658472,3.83466917 16.0843818,4.09926516 C14.7199894,5.03502042 13.3029746,6.01052006 11.8324463,7.02611979 C11.7901108,7.05687398 11.6662979,7.14761663 11.4612305,7.29834774 C11.2564603,7.44930521 11.0938027,7.56485171 10.9735921,7.64476087 C10.8532329,7.72489639 10.6961458,7.82181575 10.501848,7.93558362 C10.3074017,8.04935148 10.1289611,8.13414379 9.96641499,8.18947546 C9.80386883,8.24467778 9.65186943,8.27232745 9.51056531,8.27232745 L9.50001857,8.27232745 L9.48936041,8.27232745 C9.34801916,8.27232745 9.1961683,8.24467778 9.03351074,8.18947546 C8.87096459,8.13414379 8.69241264,8.04935148 8.49811484,7.93558362 C8.30385418,7.82178341 8.14654426,7.72486405 8.02637077,7.64476087 C7.90627156,7.56485171 7.743614,7.44930521 7.53869518,7.29834774 C7.33370209,7.14761663 7.20988924,7.05687398 7.16751657,7.02611979 C5.69732246,6.01048772 4.28015918,5.03502042 2.91587817,4.09926516 C1.87676374,3.38535401 1.35729936,2.51123649 1.35729936,1.47713896 C1.35729936,1.39719747 1.39083356,1.32789544 1.45801336,1.26949158 C1.52519316,1.21099071 1.60466512,1.18172411 1.69654064,1.18172411 L17.3037193,1.18172411 C17.3601667,1.20937377 17.4097067,1.2170704 17.4521536,1.20484634 C17.4946006,1.19239591 17.5263522,1.21555048 17.5474457,1.27398668 C17.5686506,1.33248755 17.5881101,1.36013722 17.6057499,1.35709737 C17.623464,1.35399285 17.6341221,1.39244367 17.6376501,1.47257919 C17.6409552,1.55255302 17.6427378,1.59281482 17.6427378,1.59281482 L17.6427378,1.71728683 L17.6427006,1.71728683 Z" id="Shape"></path>
                    </g>
                </g>
            </g>
        </g>
    </g>
</svg>