<?xml version="1.0" encoding="UTF-8"?>
<svg width="64px" height="71px" viewBox="0 0 64 71" version="1.1" xmlns="http://www.w3.org/2000/svg" xmlns:xlink="http://www.w3.org/1999/xlink">
    <!-- Generator: Sketch 52.5 (67469) - http://www.bohemiancoding.com/sketch -->
    <title>Group 7</title>
    <desc>Created with Sketch.</desc>
    <g id="DESKTOP" stroke="none" stroke-width="1" fill="none" fill-rule="evenodd">
        <g id="09A-DEALER-LOCATOR" transform="translate(-752.000000, -891.000000)">
            <g id="MAP" transform="translate(550.000000, 660.000000)">
                <g id="Group-7">
                    <g transform="translate(202.000000, 231.000000)">
                        <g id="Group-6">
                            <g id="Group-4">
                                <path d="M24.7372172,63.1722461 C10.5628849,59.8828831 0,47.1749885 0,32 C0,14.326888 14.326888,0 32,0 C49.673112,0 64,14.326888 64,32 C64,46.9594909 53.7349886,59.52146 39.8644403,63.0264327 L32.2279221,70.6629509 L24.7372172,63.1722461 Z" id="Combined-Shape" fill="#EBBE3E"></path>
                                <g id="ICON-PREMIUM-AMBASSADOR-Copy" transform="translate(15.000000, 15.000000)">
                                    <g id="ICON"></g>
                                </g>
                            </g>
                            <g id="Group-5" transform="translate(15.000000, 15.000000)" fill="#FFFFFF" fill-rule="nonzero">
                                <path d="M33.1584022,10.2983193 L16.5661157,0 L0,10.2983193 L0,14.5560224 L11.0440771,14.5560224 L11.0440771,10.2983193 L22.1143251,10.2983193 L22.1143251,15.2212885 C21.0936639,14.9817927 20.0206612,14.7955182 19.1831956,14.7955182 C17.6652893,14.7955182 15.7286501,15.1946779 13.5564738,15.9131653 C12.6666667,16.232493 11.8292011,16.4453782 11.0440771,16.605042 L0,16.605042 L0,18.6806723 L11.0702479,18.6806723 C11.8292011,18.5210084 12.6928375,18.2815126 13.5826446,17.9887955 C15.7548209,17.2436975 17.6914601,16.8711485 19.2093664,16.8711485 C20.7272727,16.8977591 22.9517906,17.4565826 24.3911846,17.9355742 C25.8044077,18.4145658 28.630854,19 31.6666667,19 C34.7024793,19 38,17.8823529 38,17.8823529 L38,15.8067227 C38,15.8067227 35.6969697,16.605042 33.1584022,16.8445378 L33.1584022,10.2983193 Z" id="Shape"></path>
                                <path d="M37.9738472,20.0526316 C37.9738472,20.0526316 35.5677908,20.8421053 32.9786648,21.0789474 C32.952512,21.0789474 32.9263593,21.0789474 32.9002065,21.0789474 C32.8217481,21.1052632 32.7432897,21.1052632 32.6648314,21.1052632 C32.6125258,21.1052632 32.5602202,21.1052632 32.5079147,21.1052632 C32.4294563,21.1052632 32.3509979,21.1052632 32.2725396,21.1052632 C32.220234,21.1052632 32.1940812,21.1052632 32.1417756,21.1052632 C32.0633173,21.1052632 32.0110117,21.1052632 31.9325533,21.1052632 C31.8802478,21.1052632 31.8017894,21.1052632 31.7494838,21.1052632 C31.723331,21.1052632 31.6710255,21.1052632 31.6448727,21.1052632 C28.6111493,21.1052632 25.8128011,20.5263158 24.3743978,20.0526316 C22.9621473,19.5789474 20.7130076,19 19.1961459,19 C17.6792842,19 15.743978,19.3947368 13.5732966,20.1052632 C12.6579491,20.4210526 11.8210599,20.6315789 11.0364763,20.7894737 L0,20.7894737 L0,22.8421053 L11.0364763,22.8421053 C11.8210599,22.6842105 12.6841019,22.4473684 13.5732966,22.1578947 C15.743978,21.4210526 17.6792842,21.0526316 19.1961459,21.0526316 C20.0330351,21.0526316 21.1052994,21.2368421 22.1252581,21.4736842 L22.1252581,29 L33.1617343,29 L33.1617343,23.0789474 C35.6985547,22.8157895 38,22.0526316 38,22.0526316 L37.9738472,22.0526316 L37.9738472,20.0526316 Z" id="Shape"></path>
                            </g>
                        </g>
                        <polygon id="Rectangle-path" fill="#FFFFFF" fill-rule="nonzero" points="15 40 26 40 26 44 15 44"></polygon>
                    </g>
                </g>
            </g>
        </g>
    </g>
</svg>