<?xml version="1.0" encoding="UTF-8"?>
<svg width="21px" height="17px" viewBox="0 0 21 17" version="1.1" xmlns="http://www.w3.org/2000/svg" xmlns:xlink="http://www.w3.org/1999/xlink">
    <!-- Generator: Sketch 52.3 (67297) - http://www.bohemiancoding.com/sketch -->
    <title>open-book</title>
    <desc>Created with Sketch.</desc>
    <g id="TABLET" stroke="none" stroke-width="1" fill="none" fill-rule="evenodd">
        <g id="01-HOME-TABLET" transform="translate(-737.000000, -309.000000)" fill="#FFFFFF" fill-rule="nonzero">
            <g id="STICKY-CTA" transform="translate(726.000000, 241.000000)">
                <g id="ICONS" transform="translate(10.000000, 15.000000)">
                    <g id="open-book" transform="translate(1.000000, 53.000000)">
                        <path d="M20.295265,2.29877935 L18.8232195,2.29870858 L18.8232195,0.773585557 C18.8232195,0.42441582 18.5679678,0.127756004 18.2229184,0.0760953008 C18.1626762,0.0670369857 16.7286002,-0.141445796 15.0017273,0.173047579 C13.0765923,0.523632677 11.5412642,1.38820638 10.4999646,2.69522216 C9.45859442,1.38820638 7.92326625,0.523632677 5.99820203,0.173047579 C4.27125835,-0.141375028 2.83718237,0.0670369857 2.77701085,0.0760953008 C2.43196151,0.127826772 2.17670984,0.424486588 2.17670984,0.773585557 L2.17670984,2.29870858 L0.704664294,2.29870858 C0.315564594,2.29870858 0,2.61454655 0,3.00405409 L0,16.2946545 C0,16.5230231 0.110444073,16.7372381 0.296473749,16.8695744 C0.482503426,17.0019107 0.720997572,17.0358794 0.936441291,16.9607237 C0.989330002,16.9423948 6.26992838,15.1386578 10.2075212,16.9363087 C10.3933387,17.0211597 10.6066613,17.0211597 10.7924788,16.9363087 C14.7190414,15.1437531 20.0109528,16.9425363 20.0635587,16.9607237 C20.1390736,16.9870494 20.2172754,17 20.2951943,17 C20.4396484,17 20.5826176,16.9555576 20.7035263,16.8696452 C20.8895559,16.7373089 21,16.5230939 21,16.2947253 L21,3.00412486 C20.9999293,2.61461731 20.6844354,2.29877935 20.295265,2.29877935 Z M1.40939929,15.3509621 L1.40939929,3.70932884 L2.17670984,3.70932884 L2.17670984,13.1020938 C2.17670984,13.3070382 2.2662954,13.5016504 2.42121407,13.6356144 C2.57613274,13.7695784 2.78217245,13.8296605 2.98467682,13.7997256 C3.02356558,13.7940642 6.0848886,13.3734187 8.32148713,14.9092984 C5.5663954,14.4377707 2.80897034,14.9831803 1.40939929,15.3509621 Z M9.79530035,14.2732349 C8.81021276,13.3824062 7.52709587,12.7800283 5.99820203,12.5016266 C5.26242673,12.3675919 4.57982296,12.3285279 4.03396622,12.3285279 C3.87190616,12.3285279 3.72186626,12.3319955 3.58617984,12.3374447 L3.58617984,1.42125508 L3.58610914,1.42125508 C4.94049852,1.36011145 8.2352248,1.50504449 9.79530035,4.15198322 L9.79530035,14.2732349 Z M11.2046289,4.15205398 C12.7591187,1.51643816 16.0590065,1.36492368 17.4138202,1.42302428 L17.4138202,12.3374447 C16.8210848,12.313525 15.9558453,12.3278202 15.0017273,12.5016266 C13.4728334,12.7800283 12.1897165,13.3823354 11.2046289,14.2732349 L11.2046289,4.15205398 Z M12.6761088,14.909723 C14.9129902,13.3729233 17.9759395,13.7939934 18.0141212,13.7996548 C18.2171205,13.8301559 18.4230188,13.7704276 18.5784324,13.6365344 C18.733846,13.5024997 18.8232195,13.3074628 18.8232195,13.1020938 L18.8232195,3.70939961 L19.59053,3.70939961 L19.59053,15.3509621 C18.1905347,14.9830388 15.4319783,14.4374168 12.6761088,14.909723 Z" id="Shape"></path>
                    </g>
                </g>
            </g>
        </g>
    </g>
</svg>