<?xml version="1.0" encoding="UTF-8"?>
<svg width="225px" height="68px" viewBox="0 0 225 68" version="1.1" xmlns="http://www.w3.org/2000/svg" xmlns:xlink="http://www.w3.org/1999/xlink">
    <!-- Generator: Sketch 52.3 (67297) - http://www.bohemiancoding.com/sketch -->
    <title>renson</title>
    <desc>Created with Sketch.</desc>
    <g id="DESKTOP" stroke="none" stroke-width="1" fill="none" fill-rule="evenodd">
        <g id="01-HOME" transform="translate(-50.000000, -65.000000)" fill="#FFFFFF" fill-rule="nonzero">
            <g id="MAIN-NAVIGATION" transform="translate(50.000000, 65.000000)">
                <g id="renson">
                    <g id="Group">
                        <polygon id="Shape" points="93.7486284 29.1168831 103.856391 29.1168831 103.856391 23.3005566 93.7486284 23.3005566 93.7486284 19.7402597 105.697324 19.7402597 105.697324 13.9239332 85.6902061 13.9239332 85.6902061 38.8107607 106.183608 38.8107607 106.183608 33.0296846 93.7486284 33.0296846"></polygon>
                        <polygon id="Shape" points="125.982318 21.8552876 126.294929 27.5306122 117.541815 13.9239332 110.004411 13.9239332 110.004411 38.8460111 117.715488 38.8460111 117.715488 30.9499072 117.402877 25.2745826 126.15599 38.8107607 133.693394 38.8107607 133.693394 13.9239332 125.982318 13.9239332"></polygon>
                        <polygon id="Rectangle-path" points="0.104203737 33.3116883 14.762196 33.3116883 14.762196 38.8107607 0.104203737 38.8107607"></polygon>
                        <path d="M44.1129152,13.9591837 L22.0911922,0.317254174 L0.104203737,13.9591837 L0.104203737,19.5992579 L14.762196,19.5992579 L14.762196,13.9591837 L29.4549229,13.9591837 L29.4549229,20.4805195 C28.1002743,20.1632653 26.6761566,19.9165121 25.5646501,19.9165121 C23.5500445,19.9165121 20.9796856,20.445269 18.0967156,21.3970315 C16.9157399,21.8200371 15.8042334,22.1020408 14.762196,22.3135436 L0.104203737,22.3135436 L0.104203737,25.0630798 L14.7969306,25.0630798 C15.8042334,24.851577 16.9504745,24.5343228 18.1314502,24.1465677 C21.0144202,23.1595547 23.5847791,22.6660482 25.5993846,22.6660482 C27.6139902,22.7012987 30.5664294,23.4415584 32.4768313,24.0760668 C34.3524985,24.7105751 38.103833,25.4860853 42.1330442,25.4860853 C46.1622553,25.4860853 50.5388123,24.0055659 50.5388123,24.0055659 L50.5388123,21.2560297 C50.5388123,21.2560297 47.4821693,22.3135436 44.1129152,22.6307978 L44.1129152,13.9591837 Z" id="Shape"></path>
                        <path d="M50.5040777,26.825603 C50.5040777,26.825603 47.3084964,27.8831169 43.8697731,28.2003711 C43.8350385,28.2003711 43.800304,28.2003711 43.7655694,28.2003711 C43.6613657,28.2356215 43.5571619,28.2356215 43.4529582,28.2356215 C43.383489,28.2356215 43.3140199,28.2356215 43.2445507,28.2356215 C43.140347,28.2356215 43.0361432,28.2356215 42.9319395,28.2356215 C42.8624703,28.2356215 42.8277358,28.2356215 42.7582666,28.2356215 C42.6540629,28.2356215 42.5845937,28.2356215 42.48039,28.2356215 C42.4109208,28.2356215 42.3067171,28.2356215 42.2372479,28.2356215 C42.2025133,28.2356215 42.1330442,28.2356215 42.0983096,28.2356215 C38.0690985,28.2356215 34.3524985,27.4601113 32.4420967,26.825603 C30.5664294,26.1910946 27.5792556,25.4155844 25.5646501,25.4155844 C23.5500445,25.4155844 20.9796856,25.9443414 18.0967156,26.8961039 C16.8810053,27.3191095 15.7694988,27.6011132 14.7274614,27.812616 L0.0694691578,27.812616 L0.0694691578,30.5621521 L14.7274614,30.5621521 C15.7694988,30.3506494 16.9157399,30.0333952 18.0967156,29.6456401 C20.9796856,28.6586271 23.5500445,28.1651206 25.5646501,28.1651206 C26.6761566,28.1651206 28.1002743,28.4118738 29.4549229,28.729128 L29.4549229,38.8107607 L44.1129152,38.8107607 L44.1129152,30.8794063 C47.4821693,30.5269017 50.5388123,29.5046382 50.5388123,29.5046382 L50.5040777,29.5046382 L50.5040777,26.825603 Z" id="Shape"></path>
                        <polygon id="Shape" points="206.601275 21.8552876 206.913886 27.5306122 198.160773 13.9239332 190.623369 13.9239332 190.623369 38.8107607 198.334445 38.8107607 198.334445 30.9146568 198.021834 25.2393321 206.774948 38.8107607 214.312352 38.8107607 214.312352 13.9239332 206.601275 13.9239332"></polygon>
                        <path d="M174.263382,13.2541744 C166.621775,13.2541744 161.411588,18.3302412 161.411588,26.1558442 C161.411588,34.6512059 166.552306,39.4805195 174.263382,39.4805195 C181.522909,39.4805195 187.149911,34.6864564 187.149911,26.2263451 C187.149911,19.6697588 183.016496,13.2541744 174.263382,13.2541744 Z M174.263382,33.3821892 C170.442579,33.3821892 169.47001,29.3988868 169.47001,26.2263451 C169.47001,23.0890538 170.546782,19.3525046 174.193913,19.3525046 C177.73684,19.2467532 179.091489,22.8423006 179.091489,26.2263451 C179.091489,30.3506494 177.73684,33.3821892 174.263382,33.3821892 Z" id="Shape"></path>
                        <path d="M145.225274,20.445269 C145.225274,19.5640074 146.02417,19.0352505 147.795633,19.0352505 C148.594528,19.0352505 149.28922,19.1762523 149.879708,19.4935065 C150.435461,19.8107607 150.887011,20.3395176 151.025949,21.1855288 L158.667556,21.1855288 C158.111803,16.8144712 154.985691,13.2894249 148.177714,13.2894249 C142.064428,13.2894249 137.548932,15.9684601 137.548932,21.2560297 C137.548932,30.7736549 151.651171,28.1651206 151.651171,31.9369202 C151.651171,33.1001855 150.331257,33.7699443 148.316652,33.7699443 C147.517757,33.7699443 146.684127,33.5584416 146.02417,33.135436 C145.364213,32.7124304 144.877929,32.0779221 144.704256,31.16141 L136.993179,31.16141 C137.166852,35.6382189 141.404471,39.4805195 147.865102,39.4805195 C154.603611,39.4805195 159.327513,36.6957328 159.327513,30.9146568 C159.327513,21.8552876 145.225274,24.1818182 145.225274,20.445269 Z" id="Shape"></path>
                    </g>
                    <path d="M11.7626953,52.9537893 C11.3447266,50.8096118 9.74251302,49.7375231 7.75716146,49.7375231 C4.34375,49.7375231 2.9156901,52.7319778 2.9156901,55.8743068 C2.9156901,59.349353 4.34375,62.232902 7.75716146,62.232902 C10.264974,62.232902 11.6930339,60.3844732 11.9020182,57.8336414 L13.7828776,57.8336414 C13.3997396,61.6044362 11.2054036,63.896488 7.61783854,63.896488 C3.15950521,63.896488 1,60.4214418 1,55.9852126 C1,51.5859519 3.36848958,48 7.79199219,48 C10.7874349,48 13.2604167,49.7005545 13.6783854,52.9537893 L11.7626953,52.9537893 Z M15.8030599,52.5841035 L17.4052734,52.5841035 L17.4052734,54.9131238 L17.4401042,54.9131238 C18.2760417,53.1386322 19.390625,52.2883549 21.2366536,52.3622921 L21.2366536,54.284658 C18.5198568,54.284658 17.5097656,55.948244 17.5097656,58.7208872 L17.5097656,63.6007394 L15.8030599,63.6007394 L15.8030599,52.5841035 Z M31.0240885,60.0887246 C30.5712891,62.4916821 28.9342448,63.8225508 26.6005859,63.8225508 C23.2916667,63.8225508 21.7591146,61.4195933 21.6197917,58.0184843 C21.6197917,54.728281 23.6748047,52.2883549 26.461263,52.2883549 C30.1533203,52.2883549 31.2679036,55.9112754 31.1285807,58.5730129 L23.3613281,58.5730129 C23.2916667,60.4953789 24.3017578,62.1589649 26.5657552,62.1589649 C27.9589844,62.1589649 28.9342448,61.4195933 29.2477214,60.0147874 L31.0240885,60.0887246 Z M29.3870443,56.9833641 C29.3173828,55.2828096 28.0983073,53.8780037 26.3916016,53.8780037 C24.6152344,53.8780037 23.5354818,55.3197782 23.4309896,56.9833641 L29.3870443,56.9833641 Z M42.1002604,63.5268022 C41.8216146,63.7116451 41.4036458,63.8225508 40.8811849,63.8225508 C39.9755859,63.8225508 39.453125,63.3049908 39.453125,62.1219963 C38.5126953,63.2680222 37.2239583,63.8225508 35.7958984,63.8225508 C33.9150391,63.8225508 32.382487,62.935305 32.382487,60.754159 C32.382487,58.2402957 34.1240234,57.7227357 35.9003906,57.3530499 C37.78125,56.9463956 39.3834635,57.0942699 39.3834635,55.7264325 C39.3834635,54.1367837 38.164388,53.9149723 37.0846354,53.9149723 C35.6565755,53.9149723 34.5768229,54.3585952 34.5071615,55.9852126 L32.8004557,55.9852126 C32.8701172,53.2865065 34.8554688,52.2883549 37.1891276,52.2883549 C39.069987,52.2883549 41.0553385,52.7319778 41.0553385,55.3197782 L41.0553385,60.9759704 C41.0553385,61.8262477 41.0553385,62.1959335 41.6126302,62.1959335 C41.7519531,62.1959335 41.891276,62.1589649 42.1350911,62.1219963 L42.1002604,63.5268022 Z M39.3486328,57.87061 C38.686849,58.3881701 37.398112,58.3881701 36.2835286,58.6099815 C35.1689453,58.831793 34.2285156,59.2384473 34.2285156,60.6062847 C34.2285156,61.7892791 35.1689453,62.232902 36.2486979,62.232902 C38.4778646,62.232902 39.4182943,60.754159 39.4182943,59.7190388 L39.3486328,57.87061 Z M46.0709635,52.5841035 L48.1259766,52.5841035 L48.1259766,54.1737523 L46.0709635,54.1737523 L46.0709635,61.012939 C46.0709635,61.8262477 46.3147786,61.974122 47.3597005,61.974122 L48.1259766,61.974122 L48.1259766,63.5637708 L46.8024089,63.5637708 C45.0608724,63.5637708 44.3294271,63.1571165 44.3294271,61.1608133 L44.3294271,54.1737523 L42.5878906,54.1737523 L42.5878906,52.5841035 L44.3294271,52.5841035 L44.3294271,49.2939002 L46.0361328,49.2939002 L46.0709635,52.5841035 Z M51.8180339,50.5878004 L50.1113281,50.5878004 L50.1113281,48.4066543 L51.8180339,48.4066543 L51.8180339,50.5878004 Z M50.0764974,52.5841035 L51.7832031,52.5841035 L51.7832031,63.5637708 L50.0764974,63.5637708 L50.0764974,52.5841035 Z M54.4651693,52.5841035 L56.0673828,52.5841035 L56.0673828,54.3216266 L56.1022135,54.3216266 C56.8336589,52.9537893 57.9830729,52.3253235 59.4807943,52.3253235 C62.1975911,52.3253235 63.0335286,53.9889094 63.0335286,56.3548983 L63.0335286,63.5637708 L61.3268229,63.5637708 L61.3268229,56.1330869 C61.3268229,54.8022181 60.5257161,53.9519409 59.2369792,53.9519409 C57.1819661,53.9519409 56.171875,55.4306839 56.171875,57.3900185 L56.171875,63.6007394 L54.4651693,63.6007394 L54.4651693,52.5841035 Z M74.5276693,62.6025878 C74.5276693,66.1885397 72.9602865,68 69.7210286,68 C67.7705078,68 65.5413411,67.1866913 65.436849,64.7837338 L67.1435547,64.7837338 C67.2132161,66.077634 68.7109375,66.5951941 69.8255208,66.5951941 C72.0546875,66.5951941 72.9254557,64.8946396 72.9254557,62.4177449 L72.9254557,61.6783734 L72.890625,61.6783734 C72.3333333,63.0092421 70.9749349,63.6746765 69.6861979,63.6746765 C66.6210938,63.6746765 65.0537109,61.1238447 65.0537109,58.0924214 C65.0537109,55.5046211 66.2727865,52.2883549 69.8603516,52.2883549 C71.1490885,52.2883549 72.3333333,52.8798521 72.9254557,54.0998152 L72.9602865,54.0998152 L72.9602865,52.5101664 L74.5625,52.5101664 L74.5276693,62.6025878 Z M72.8209635,57.8336414 C72.8209635,55.9112754 72.0198568,53.9149723 69.8951823,53.9149723 C67.7008464,53.9149723 66.8300781,55.8003697 66.8300781,57.9075786 C66.8300781,59.9038817 67.5266927,62.0850277 69.7558594,62.0850277 C71.985026,62.0850277 72.8209635,59.9038817 72.8209635,57.8336414 Z M82.6432292,48.3696858 L84.3499349,48.3696858 L84.3499349,54.1737523 L84.3847656,54.1737523 C84.9420573,52.8798521 86.4049479,52.3253235 87.6588542,52.3253235 C90.375651,52.3253235 91.2115885,53.9889094 91.2115885,56.3548983 L91.2115885,63.5637708 L89.5048828,63.5637708 L89.5048828,56.1330869 C89.5048828,54.8022181 88.703776,53.9519409 87.4150391,53.9519409 C85.360026,53.9519409 84.3499349,55.4306839 84.3499349,57.3900185 L84.3499349,63.6007394 L82.6432292,63.6007394 L82.6432292,48.3696858 Z M102.601237,60.0887246 C102.148438,62.4916821 100.511393,63.8225508 98.1777344,63.8225508 C94.8688151,63.8225508 93.336263,61.4195933 93.1969401,58.0184843 C93.1969401,54.728281 95.2519531,52.2883549 98.0384115,52.2883549 C101.730469,52.2883549 102.845052,55.9112754 102.705729,58.5730129 L94.9384766,58.5730129 C94.8688151,60.4953789 95.8789063,62.1589649 98.1429036,62.1589649 C99.5361328,62.1589649 100.511393,61.4195933 100.82487,60.0147874 L102.601237,60.0887246 Z M100.964193,56.9833641 C100.894531,55.2828096 99.6754557,53.8780037 97.96875,53.8780037 C96.1923828,53.8780037 95.1126302,55.3197782 95.008138,56.9833641 L100.964193,56.9833641 Z M113.71224,63.5268022 C113.433594,63.7116451 113.015625,63.8225508 112.493164,63.8225508 C111.587565,63.8225508 111.065104,63.3049908 111.065104,62.1219963 C110.124674,63.2680222 108.835938,63.8225508 107.407878,63.8225508 C105.527018,63.8225508 103.994466,62.935305 103.994466,60.754159 C103.994466,58.2402957 105.736003,57.7227357 107.51237,57.3530499 C109.393229,56.9463956 110.995443,57.0942699 110.995443,55.7264325 C110.995443,54.1367837 109.776367,53.9149723 108.696615,53.9149723 C107.268555,53.9149723 106.188802,54.3585952 106.119141,55.9852126 L104.412435,55.9852126 C104.516927,53.2865065 106.467448,52.2883549 108.801107,52.2883549 C110.681966,52.2883549 112.667318,52.7319778 112.667318,55.3197782 L112.667318,60.9759704 C112.667318,61.8262477 112.667318,62.1959335 113.224609,62.1959335 C113.363932,62.1959335 113.503255,62.1589649 113.74707,62.1219963 L113.74707,63.5268022 L113.71224,63.5268022 Z M110.925781,57.87061 C110.263997,58.3881701 108.97526,58.3881701 107.860677,58.6099815 C106.746094,58.831793 105.805664,59.2384473 105.805664,60.6062847 C105.805664,61.7892791 106.746094,62.232902 107.825846,62.232902 C110.055013,62.232902 110.995443,60.754159 110.995443,59.7190388 L110.925781,57.87061 Z M115.384115,48.3696858 L117.09082,48.3696858 L117.09082,63.5637708 L115.384115,63.5637708 L115.384115,48.3696858 Z M122.106445,52.5841035 L124.161458,52.5841035 L124.161458,54.1737523 L122.106445,54.1737523 L122.106445,61.012939 C122.106445,61.8262477 122.35026,61.974122 123.395182,61.974122 L124.161458,61.974122 L124.161458,63.5637708 L122.872721,63.5637708 C121.131185,63.5637708 120.39974,63.1571165 120.39974,61.1608133 L120.39974,54.1737523 L118.658203,54.1737523 L118.658203,52.5841035 L120.39974,52.5841035 L120.39974,49.2939002 L122.106445,49.2939002 L122.106445,52.5841035 Z M126.042318,48.3696858 L127.749023,48.3696858 L127.749023,54.1737523 L127.783854,54.1737523 C128.341146,52.8798521 129.804036,52.3253235 131.057943,52.3253235 C133.77474,52.3253235 134.610677,53.9889094 134.610677,56.3548983 L134.610677,63.5637708 L132.903971,63.5637708 L132.903971,56.1330869 C132.903971,54.8022181 132.102865,53.9519409 130.814128,53.9519409 C128.759115,53.9519409 127.749023,55.4306839 127.749023,57.3900185 L127.749023,63.6007394 L126.042318,63.6007394 L126.042318,48.3696858 Z M141.228516,65.0055453 C140.46224,67.1497227 139.730794,67.9260628 138.198242,67.9260628 C137.780273,67.9260628 137.397135,67.8890943 137.013997,67.74122 L137.013997,66.077634 C137.327474,66.1885397 137.675781,66.336414 138.024089,66.336414 C138.720703,66.336414 139.103841,65.9667283 139.417318,65.3382625 L140.113932,63.4898336 L136.003906,52.5841035 L137.919596,52.5841035 L140.94987,61.5674677 L140.984701,61.5674677 L143.875651,52.5841035 L145.686849,52.5841035 L141.228516,65.0055453 Z M153.767578,60.0887246 C153.83724,61.715342 155.160807,62.232902 156.554036,62.232902 C157.633789,62.232902 159.061849,61.974122 159.061849,60.5693161 C159.061849,59.1645102 157.355143,58.9057301 155.683268,58.5360444 C153.976563,58.12939 152.304688,57.5378928 152.304688,55.4306839 C152.304688,53.2495379 154.359701,52.3253235 156.170898,52.3253235 C158.434896,52.3253235 160.280924,53.1016636 160.420247,55.7634011 L158.713542,55.7634011 C158.609049,54.3585952 157.424805,53.9149723 156.310221,53.9149723 C155.265299,53.9149723 154.081055,54.2107209 154.081055,55.3197782 C154.081055,56.6136784 155.892253,56.7985213 157.459635,57.2421442 C159.166341,57.6487985 160.838216,58.2402957 160.838216,60.3475046 C160.838216,62.9722736 158.539388,63.8225508 156.449544,63.8225508 C154.115885,63.8225508 152.165365,62.8243993 152.060872,60.0887246 L153.767578,60.0887246 Z M162.823568,52.5841035 L164.530273,52.5841035 L164.530273,54.0628466 L164.565104,54.0628466 C165.122396,52.8428835 166.445964,52.3253235 167.874023,52.3253235 C171.078451,52.3253235 172.645833,55.0240296 172.645833,58.12939 C172.645833,61.2347505 171.078451,63.8595194 167.943685,63.8595194 C166.863932,63.8595194 165.366211,63.4158965 164.599935,62.1589649 L164.565104,62.1589649 L164.565104,67.8151571 L162.858398,67.8151571 L162.823568,52.5841035 Z M167.630208,53.8780037 C165.366211,53.8780037 164.460612,55.948244 164.460612,58.0184843 C164.460612,60.1996303 165.366211,62.1959335 167.734701,62.1959335 C170.068359,62.1959335 170.834635,60.0887246 170.834635,57.9445471 C170.834635,55.9112754 169.824544,53.8780037 167.630208,53.8780037 Z M183.791667,63.5268022 C183.513021,63.7116451 183.095052,63.8225508 182.572591,63.8225508 C181.666992,63.8225508 181.144531,63.3049908 181.144531,62.1219963 C180.204102,63.2680222 178.915365,63.8225508 177.487305,63.8225508 C175.606445,63.8225508 174.073893,62.935305 174.073893,60.754159 C174.073893,58.2402957 175.81543,57.7227357 177.591797,57.3530499 C179.472656,56.9463956 181.07487,57.0942699 181.07487,55.7264325 C181.07487,54.1367837 179.855794,53.9149723 178.776042,53.9149723 C177.347982,53.9149723 176.268229,54.3585952 176.198568,55.9852126 L174.491862,55.9852126 C174.561523,53.2865065 176.546875,52.2883549 178.880534,52.2883549 C180.761393,52.2883549 182.746745,52.7319778 182.746745,55.3197782 L182.746745,60.9759704 C182.746745,61.8262477 182.746745,62.1959335 183.304036,62.1959335 C183.443359,62.1959335 183.582682,62.1589649 183.826497,62.1219963 L183.791667,63.5268022 Z M181.040039,57.87061 C180.378255,58.3881701 179.089518,58.3881701 177.974935,58.6099815 C176.860352,58.831793 175.919922,59.2384473 175.919922,60.6062847 C175.919922,61.7892791 176.860352,62.232902 177.940104,62.232902 C180.169271,62.232902 181.109701,60.754159 181.109701,59.7190388 L181.040039,57.87061 Z M192.429688,56.0961183 C192.185872,54.728281 191.280273,53.9149723 189.887044,53.9149723 C187.414063,53.9149723 186.682617,55.9852126 186.682617,58.2033272 C186.682617,60.1996303 187.553385,62.232902 189.712891,62.232902 C191.349935,62.232902 192.325195,61.2347505 192.56901,59.5341959 L194.310547,59.5341959 C193.927409,62.232902 192.360026,63.7855823 189.747721,63.7855823 C186.578125,63.7855823 184.90625,61.4195933 184.90625,58.1663586 C184.90625,54.8761553 186.508464,52.2883549 189.782552,52.2883549 C192.151042,52.2883549 193.99707,53.4343808 194.240885,56.0591497 L192.429688,56.0961183 Z M204.96875,60.0887246 C204.515951,62.4916821 202.878906,63.8225508 200.545247,63.8225508 C197.236328,63.8225508 195.703776,61.4195933 195.564453,58.0184843 C195.564453,54.728281 197.619466,52.2883549 200.405924,52.2883549 C204.097982,52.2883549 205.212565,55.9112754 205.073242,58.5730129 L197.30599,58.5730129 C197.236328,60.4953789 198.246419,62.1589649 200.510417,62.1589649 C201.903646,62.1589649 202.878906,61.4195933 203.192383,60.0147874 L204.96875,60.0887246 Z M203.331706,56.9833641 C203.262044,55.2828096 202.042969,53.8780037 200.336263,53.8780037 C198.559896,53.8780037 197.480143,55.3197782 197.375651,56.9833641 L203.331706,56.9833641 Z M207.929362,60.0887246 C207.999023,61.715342 209.322591,62.232902 210.71582,62.232902 C211.795573,62.232902 213.223633,61.974122 213.223633,60.5693161 C213.223633,59.1645102 211.516927,58.9057301 209.845052,58.5360444 C208.138346,58.12939 206.466471,57.5378928 206.466471,55.4306839 C206.466471,53.2495379 208.521484,52.3253235 210.332682,52.3253235 C212.59668,52.3253235 214.442708,53.1016636 214.582031,55.7634011 L212.875326,55.7634011 C212.770833,54.3585952 211.586589,53.9149723 210.472005,53.9149723 C209.427083,53.9149723 208.242839,54.2107209 208.242839,55.3197782 C208.242839,56.6136784 210.054036,56.7985213 211.621419,57.2421442 C213.328125,57.6487985 215,58.2402957 215,60.3475046 C215,62.9722736 212.701172,63.8225508 210.611328,63.8225508 C208.277669,63.8225508 206.327148,62.8243993 206.222656,60.0887246 L207.929362,60.0887246 Z" id="Shape"></path>
                    <path d="M81.1456166,33.8654391 C81.1456166,28.8371105 79.6077266,28.1997167 77.0445765,27.2436261 C79.8811293,26.4291785 81.1114413,23.9858357 81.1114413,21.1175637 C81.1114413,16.266289 78.4457652,14 70.4145617,14 L59,14 L59,38.9645892 L66.9286776,38.9645892 L66.9286776,30.2535411 L69.3551263,30.2535411 C73.0460624,30.2535411 73.5928678,31.3512748 73.5928678,34.6090652 C73.5928678,36.8399433 73.7979198,38.4334278 74.0029718,39 L82,39 L82,38.2563739 C81.0430906,38.2563739 81.1456166,37.1232295 81.1456166,33.8654391 Z M70.1069837,24.8002833 L66.9970282,24.8002833 L66.9970282,19.8427762 L70.6879643,19.8427762 C72.5334324,19.8427762 73.8662704,20.6572238 73.8662704,22.427762 C73.8662704,24.1628895 72.5676077,24.8002833 70.1069837,24.8002833 Z" id="Shape"></path>
                    <path d="M221.5,15 C219.635514,15 218,16.3807339 218,18.5 C218,20.4908257 219.439252,22 221.5,22 C223.364486,22 224.96729,20.587156 225,18.5 C225,16.3807339 223.364486,15 221.5,15 Z M221.5,21.3577982 C219.799065,21.3577982 218.752336,20.0733945 218.752336,18.4678899 C218.752336,16.766055 219.962617,15.5779817 221.5,15.5779817 C223.004673,15.5779817 224.214953,16.766055 224.214953,18.4678899 C224.214953,20.1697248 223.037383,21.3577982 221.5,21.3577982 Z" id="Shape"></path>
                    <path d="M221.891304,18.2479339 C222.51087,18.1818182 222.934783,17.8842975 222.934783,17.1570248 C222.934783,16.3305785 222.445652,16 221.5,16 L220,16 L220,20 L220.652174,20 L220.652174,18.2809917 L221.271739,18.2809917 L222.282609,20 L223,20 L221.891304,18.2479339 Z M220.652174,17.7190083 L220.652174,16.5619835 L221.434783,16.5619835 C221.826087,16.5619835 222.282609,16.5950413 222.282609,17.0909091 C222.282609,17.6859504 221.858696,17.7190083 221.369565,17.7190083 L220.652174,17.7190083 Z" id="Shape"></path>
                </g>
            </g>
        </g>
        <g id="Page"></g>
    </g>
</svg>