<?xml version="1.0" encoding="UTF-8"?>
<svg width="19px" height="19px" viewBox="0 0 19 19" version="1.1" xmlns="http://www.w3.org/2000/svg" xmlns:xlink="http://www.w3.org/1999/xlink">
    <!-- Generator: Sketch 52.3 (67297) - http://www.bohemiancoding.com/sketch -->
    <title></title>
    <desc>Created with Sketch.</desc>
    <g id="TABLET" stroke="none" stroke-width="1" fill="none" fill-rule="evenodd">
        <g id="01-HOME-TABLET" transform="translate(-674.000000, -78.000000)" fill="#FFFFFF">
            <g id="MAIN-NAV" transform="translate(30.000000, 65.000000)">
                <path d="M662.888672,30.4042969 C662.962891,30.4785156 663,30.5774741 663,30.7011719 C663,30.8248696 662.962891,30.9361977 662.888672,31.0351562 L662.035156,31.8515625 C661.936198,31.950521 661.82487,32 661.701172,32 C661.577474,32 661.478516,31.950521 661.404297,31.8515625 L656.876953,27.3613281 C656.802734,27.2623696 656.765625,27.1634116 656.765625,27.0644531 L656.765625,26.5449219 C656.072916,27.1386719 655.29362,27.6025391 654.427734,27.9365234 C653.561849,28.2705078 652.658854,28.4375 651.71875,28.4375 C650.308594,28.4375 649.015951,28.091146 647.84082,27.3984375 C646.66569,26.705729 645.731771,25.7718101 645.039062,24.5966797 C644.346354,23.4215493 644,22.1289062 644,20.71875 C644,19.3085938 644.346354,18.0159507 645.039062,16.8408203 C645.731771,15.6656899 646.66569,14.731771 647.84082,14.0390625 C649.015951,13.346354 650.308594,13 651.71875,13 C653.128906,13 654.421549,13.346354 655.59668,14.0390625 C656.77181,14.731771 657.705729,15.6656899 658.398438,16.8408203 C659.091146,18.0159507 659.4375,19.3085938 659.4375,20.71875 C659.4375,21.658854 659.270508,22.5618491 658.936523,23.4277344 C658.602539,24.2936196 658.138672,25.0729165 657.544922,25.765625 L658.064453,25.765625 C658.188151,25.765625 658.287109,25.8027344 658.361328,25.8769531 L662.888672,30.4042969 Z M651.71875,26.65625 C652.782552,26.65625 653.772135,26.3902993 654.6875,25.8583984 C655.602865,25.3264976 656.326498,24.6028648 656.858398,23.6875 C657.390299,22.7721352 657.65625,21.7825523 657.65625,20.71875 C657.65625,19.6549477 657.390299,18.6653648 656.858398,17.75 C656.326498,16.8346352 655.602865,16.1110024 654.6875,15.5791016 C653.772135,15.0472007 652.782552,14.78125 651.71875,14.78125 C650.654948,14.78125 649.665365,15.0472007 648.75,15.5791016 C647.834635,16.1110024 647.111002,16.8346352 646.579102,17.75 C646.047201,18.6653648 645.78125,19.6549477 645.78125,20.71875 C645.78125,21.7825523 646.047201,22.7721352 646.579102,23.6875 C647.111002,24.6028648 647.834635,25.3264976 648.75,25.8583984 C649.665365,26.3902993 650.654948,26.65625 651.71875,26.65625 Z" id=""></path>
            </g>
        </g>
    </g>
</svg>