<?xml version="1.0" encoding="UTF-8"?>
<svg width="21px" height="21px" viewBox="0 0 21 21" version="1.1" xmlns="http://www.w3.org/2000/svg" xmlns:xlink="http://www.w3.org/1999/xlink">
    <!-- Generator: Sketch 52.3 (67297) - http://www.bohemiancoding.com/sketch -->
    <title>shopping-cart-of-checkered-design</title>
    <desc>Created with Sketch.</desc>
    <g id="TABLET" stroke="none" stroke-width="1" fill="none" fill-rule="evenodd">
        <g id="01-HOME-TABLET" transform="translate(-736.000000, -256.000000)" fill="#FFFFFF" fill-rule="nonzero">
            <g id="STICKY-CTA" transform="translate(726.000000, 241.000000)">
                <g id="ICONS" transform="translate(10.000000, 15.000000)">
                    <g id="shopping-cart-of-checkered-design">
                        <path d="M20.8706321,3.99275334 C20.7438358,3.80805045 20.5413754,3.69874668 20.326226,3.69874668 L5.16585066,3.69874668 C5.13647792,3.69874668 5.10715218,3.70064414 5.07890735,3.70468873 L4.45498336,1.79374531 C4.39031634,1.59610972 4.2479173,1.43857048 4.06491338,1.36202289 L0.920479364,0.0495787594 C0.573928033,-0.0945783783 0.182871127,0.0862796587 0.0467696006,0.454037649 C-0.0890969437,0.821995373 0.0810769605,1.23773917 0.427440306,1.3823457 L3.28331653,2.57435096 L6.77895452,13.2799783 C6.62466539,13.3371019 6.49392146,13.4628836 6.43437704,13.6388482 L5.42367282,16.6218074 C5.36173158,16.8047127 5.38725062,17.0079408 5.49266351,17.1668782 C5.59793541,17.3258155 5.76914323,17.420439 5.95195916,17.420439 L6.47098722,17.420439 C6.14934397,17.8007302 5.95195916,18.3015601 5.95195916,18.8522734 C5.95195916,20.0365889 6.85889537,21 7.9733676,21 C9.08783984,21 9.99477605,20.0365889 9.99477605,18.8522734 C9.99477605,18.3015601 9.79739123,17.8007302 9.47574799,17.420439 L13.8828808,17.420439 C13.5610966,17.8007302 13.3636648,18.3015601 13.3636648,18.8522734 C13.3636648,20.0365889 14.270413,21 15.3851202,21 C16.4997804,21 17.4065287,20.0365889 17.4065287,18.8522734 C17.4065287,18.3015601 17.2091439,17.8007302 16.8875476,17.420439 L17.51885,17.420439 C17.8289792,17.420439 18.0803158,17.1533463 18.0803158,16.8238371 C18.0803158,16.494328 17.8289322,16.2272852 17.51885,16.2272852 L6.75089768,16.2272852 L7.37684251,14.3799567 C7.45767629,14.4161083 7.54499557,14.4374797 7.63640354,14.4374797 L17.518709,14.4374797 C17.8116845,14.4374797 18.0709635,14.2363988 18.1602097,13.940195 L20.9677266,4.63329638 C21.0335685,4.41538791 20.9974283,4.17745623 20.8706321,3.99275334 Z M8,20 C7.44847248,20 7,19.5515392 7,19.0000262 C7,18.4485131 7.44847248,18 8,18 C8.55152752,18 9,18.4485131 9,19.0000262 C9,19.5515392 8.55152752,20 8,20 Z M15.0000262,20 C14.4485131,20 14,19.5515392 14,19.0000262 C14,18.4485131 14.4485131,18 15.0000262,18 C15.5514869,18 16,18.4485131 16,19.0000262 C16,19.5515392 15.5514869,20 15.0000262,20 Z M18.5047605,7 L15,7 L15,5 L19,5 L18.5047605,7 Z M17.443166,10 L15,10 L15,8 L18,8 L17.443166,10 Z M11,10 L11,8 L14,8 L14,10 L11,10 Z M14,11 L14,13 L11,13 L11,11 L14,11 Z M7,8 L10,8 L10,10 L7.57727899,10 L7,8 Z M11,7 L11,5 L14,5 L14,7 L11,7 Z M10,5 L10,7 L6.50911572,7 L6,5 L10,5 Z M8,11 L10,11 L10,13 L8.49001864,13 L8,11 Z M15,13 L15,11 L17,11 L16.5359948,13 L15,13 Z" id="Shape"></path>
                    </g>
                </g>
            </g>
        </g>
    </g>
</svg>