<?xml version="1.0" encoding="UTF-8"?>
<svg width="13px" height="24px" viewBox="0 0 13 24" version="1.1" xmlns="http://www.w3.org/2000/svg" xmlns:xlink="http://www.w3.org/1999/xlink">
    <!-- Generator: Sketch 52.3 (67297) - http://www.bohemiancoding.com/sketch -->
    <title>support</title>
    <desc>Created with Sketch.</desc>
    <g id="DESKTOP" stroke="none" stroke-width="1" fill="none" fill-rule="evenodd">
        <g id="01-HOME" transform="translate(-1411.000000, -405.000000)" fill="#FFFFFF">
            <g id="STICKY-CTA" transform="translate(1398.000000, 241.000000)">
                <g id="ICONS" transform="translate(10.000000, 15.000000)">
                    <g id="support" transform="translate(3.000000, 149.000000)">
                        <path d="M10.774798,1.33226763e-15 L2.22520196,1.33226763e-15 C0.998222949,1.33226763e-15 0,1.13122556 0,2.52154542 L0,21.4779052 C0,22.8685913 0.998222949,24 2.22520196,24 L10.774798,24 C12.0017771,24 13,22.8685913 13,21.4779052 C13,20.7171021 13,3.32409666 13,2.52154542 C13,1.13122556 12.0017771,0 10.774798,1.33226763e-15 Z M11.7378029,21.4779052 C11.7378029,22.0797729 11.3058158,22.569397 10.774798,22.569397 L2.22520196,22.569397 C1.69418418,22.569397 1.26219708,22.0797729 1.26219708,21.4779052 L1.26219708,20.0165405 L11.7378029,20.0165405 L11.7378029,21.4779052 Z M11.7378029,18.5859375 L1.26219708,18.5859375 L1.26219708,5.37744141 L11.7378029,5.37744141 L11.7378029,18.5859375 Z M11.7378029,3.94683839 L1.26219708,3.94683839 L1.26219708,2.52154542 C1.26219708,1.92004397 1.69418418,1.43060302 2.22520196,1.43060302 L10.774798,1.43060302 C11.3058158,1.43060302 11.7378029,1.92004397 11.7378029,2.52154542 L11.7378029,3.94683839 Z" id="Shape" fill-rule="nonzero"></path>
                        <path d="M8.04634432,1.65517241 L5.67571909,1.65517241 C5.33324783,1.65517241 5.05555556,2.02569545 5.05555556,2.48265268 C5.05555556,2.93982179 5.33324783,3.31034483 5.67571909,3.31034483 L8.04634432,3.31034483 C8.38897435,3.31034483 8.66666667,2.93982179 8.66666667,2.48265268 C8.66666667,2.02569545 8.38897435,1.65517241 8.04634432,1.65517241 Z" id="Path"></path>
                        <path d="M5.67571909,22.3448276 L8.04634432,22.3448276 C8.38897435,22.3448276 8.66666667,21.9743046 8.66666667,21.5171354 C8.66666667,21.0601782 8.38897435,20.6896552 8.04634432,20.6896552 L5.67571909,20.6896552 C5.33324783,20.6896552 5.05555556,21.0601782 5.05555556,21.5171354 C5.05555556,21.9743046 5.33324783,22.3448276 5.67571909,22.3448276 Z" id="Path"></path>
                    </g>
                </g>
            </g>
        </g>
        <g id="Page"></g>
    </g>
</svg>